<svg xmlns="http://www.w3.org/2000/svg" width="25.067" height="25.067" viewBox="0 0 25.067 25.067">
  <g id="blog-linkedin" transform="translate(-1562 -559)">
    <circle id="Ellipse_136" data-name="Ellipse 136" cx="12.533" cy="12.533" r="12.533" transform="translate(1562 559)" fill="#0b77b5"/>
    <path id="LinkedIn" d="M449.265,1275.263v4.159h-2.411v-3.881c0-.975-.349-1.64-1.222-1.64a1.32,1.32,0,0,0-1.237.882,1.658,1.658,0,0,0-.08.588v4.051H441.9s.032-6.573,0-7.255h2.412v1.028l-.016.023h.016v-.023a2.4,2.4,0,0,1,2.174-1.2C448.075,1272,449.265,1273.035,449.265,1275.263Zm-9.886-6.592a1.257,1.257,0,1,0-.032,2.507h.016a1.258,1.258,0,1,0,.016-2.507Zm-1.222,10.752h2.411v-7.255h-2.411Z" transform="translate(1131.571 -703.16)" fill="#fff"/>
  </g>
</svg>
