<svg xmlns="http://www.w3.org/2000/svg" width="25.004" height="25.004" viewBox="0 0 25.004 25.004">
  <g id="blog-twitter" transform="translate(-1597 -559)">
    <circle id="Ellipse_137" data-name="Ellipse 137" cx="12.502" cy="12.502" r="12.502" transform="translate(1597 559)" fill="#1ea2f1"/>
    <path id="Path_192" data-name="Path 192" d="M548.022,1268.611a5.192,5.192,0,0,1-1.495.41,2.61,2.61,0,0,0,1.145-1.44,5.216,5.216,0,0,1-1.653.632,2.605,2.605,0,0,0-4.436,2.374,7.39,7.39,0,0,1-5.366-2.72,2.606,2.606,0,0,0,.806,3.476,2.591,2.591,0,0,1-1.179-.326c0,.011,0,.022,0,.033a2.605,2.605,0,0,0,2.089,2.553,2.628,2.628,0,0,1-.686.091,2.6,2.6,0,0,1-.49-.047,2.605,2.605,0,0,0,2.432,1.808,5.256,5.256,0,0,1-3.854,1.078,7.4,7.4,0,0,0,11.4-6.237c0-.113,0-.225-.008-.337A5.284,5.284,0,0,0,548.022,1268.611Z" transform="translate(1067.825 -701.044)" fill="#fff"/>
  </g>
</svg>
