<?xml version="1.0" encoding="utf-8"?>
<!-- Generator: Adobe Illustrator 24.3.0, SVG Export Plug-In . SVG Version: 6.00 Build 0)  -->
<svg version="1.1" id="Layer_1" xmlns="http://www.w3.org/2000/svg" xmlns:xlink="http://www.w3.org/1999/xlink" x="0px" y="0px"
	 width="23px" height="19.4px" viewBox="0 0 23 19.4" style="enable-background:new 0 0 23 19.4;" xml:space="preserve">
<style type="text/css">
	.st0{clip-path:url(#SVGID_2_);}
	.st1{fill:#B5B5B5;}
</style>
<g transform="translate(-27.861 -27.861)">
	<g>
		<defs>
			<rect id="SVGID_1_" x="29.6" y="27.8" width="19.6" height="19.6"/>
		</defs>
		<clipPath id="SVGID_2_">
			<use xlink:href="#SVGID_1_"  style="overflow:visible;"/>
		</clipPath>
		<g transform="translate(27.861 27.861)" class="st0">
			<path class="st1" d="M11.5,1.7c-2.6,0-2.9,0-4,0.1c-0.6,0-1.2,0.1-1.8,0.3C4.9,2.4,4.2,3.1,3.9,4C3.7,4.6,3.5,5.2,3.5,5.8
				c0,1-0.1,1.3-0.1,4s0,2.9,0.1,4c0,0.6,0.1,1.2,0.3,1.8c0.3,0.9,1,1.5,1.9,1.9c0.6,0.2,1.2,0.3,1.8,0.3c1,0,1.3,0.1,4,0.1
				s2.9,0,4-0.1c0.6,0,1.2-0.1,1.8-0.3c0.9-0.3,1.5-1,1.9-1.9c0.2-0.6,0.3-1.2,0.3-1.8c0-1,0.1-1.3,0.1-4s0-2.9-0.1-4
				c0-0.6-0.1-1.2-0.3-1.8c-0.3-0.9-1-1.5-1.9-1.9c-0.6-0.2-1.2-0.3-1.8-0.3C14.4,1.7,14.1,1.7,11.5,1.7 M11.5,0c2.7,0,3,0,4,0.1
				c0.8,0,1.6,0.2,2.4,0.5C19.2,1,20.3,2,20.8,3.3c0.3,0.8,0.4,1.6,0.5,2.4c0,1,0.1,1.4,0.1,4s0,3-0.1,4c0,0.8-0.2,1.6-0.5,2.4
				c-0.5,1.3-1.5,2.4-2.9,2.9c-0.8,0.3-1.6,0.4-2.4,0.5c-1,0-1.4,0.1-4,0.1s-3,0-4-0.1c-0.8,0-1.6-0.2-2.4-0.5
				c-1.3-0.5-2.4-1.5-2.9-2.9c-0.3-0.8-0.4-1.6-0.5-2.4c0-1-0.1-1.4-0.1-4s0-3,0.1-4c0-0.8,0.2-1.6,0.5-2.4C2.7,2,3.8,1,5.1,0.5
				C5.9,0.2,6.7,0,7.5,0C8.5,0,8.8,0,11.5,0"/>
			<path class="st1" d="M11.5,4.7c2.8,0,5,2.2,5,5c0,2.8-2.2,5-5,5c-2.8,0-5-2.2-5-5l0,0C6.5,7,8.7,4.7,11.5,4.7 M11.5,13
				c1.8,0,3.3-1.5,3.3-3.3s-1.5-3.3-3.3-3.3S8.2,7.9,8.2,9.7S9.7,13,11.5,13L11.5,13"/>
			<path class="st1" d="M5.1,4.5c0,0.6,0.5,1.2,1.2,1.2s1.2-0.5,1.2-1.2S6.9,3.3,6.3,3.3S5.1,3.9,5.1,4.5L5.1,4.5"/>
		</g>
	</g>
</g>
</svg>
