<?xml version="1.0" encoding="utf-8"?>
<!-- Generator: Adobe Illustrator 24.3.0, SVG Export Plug-In . SVG Version: 6.00 Build 0)  -->
<svg version="1.1" id="Layer_1" xmlns="http://www.w3.org/2000/svg" xmlns:xlink="http://www.w3.org/1999/xlink" x="0px" y="0px"
	 width="23px" height="19.4px" viewBox="0 0 23 19.4" style="enable-background:new 0 0 23 19.4;" xml:space="preserve">
<style type="text/css">
	.st0{clip-path:url(#SVGID_2_);}
	.st1{fill:#B5B5B5;}
</style>
<g transform="translate(-266.795 -386.324)">
	<path class="st1" d="M268.5,392.8h4.2v12.8h-4.2V392.8z M270.6,386.5c1.3,0.1,2.3,1.2,2.2,2.4c-0.1,1.3-1.2,2.3-2.4,2.2
		c-1.2-0.1-2.2-1.1-2.2-2.3C268.2,387.5,269.3,386.4,270.6,386.5"/>
	<path class="st1" d="M275.4,392.8h4v1.8h0.1c0.9-1.4,2.4-2.1,4-2.1c4.2,0,5,2.7,5,6.1v7h-4.2v-6.2c0-1.5,0-3.4-2.2-3.4
		c-2.2,0-2.5,1.6-2.5,3.3v6.3h-4.2L275.4,392.8z"/>
</g>
</svg>
