<?xml version="1.0" encoding="utf-8"?>
<!-- Generator: Adobe Illustrator 24.3.0, SVG Export Plug-In . SVG Version: 6.00 Build 0)  -->
<svg version="1.1" id="Layer_1" xmlns="http://www.w3.org/2000/svg" xmlns:xlink="http://www.w3.org/1999/xlink" x="0px" y="0px"
	 width="23px" height="19.4px" viewBox="0 0 23 19.4" style="enable-background:new 0 0 23 19.4;" xml:space="preserve">
<style type="text/css">
	.st0{clip-path:url(#SVGID_2_);}
	.st1{fill:#B5B5B5;}
</style>
<path class="st1" d="M22.9,3c-0.9,0.4-1.8,0.6-2.7,0.7c1-0.5,1.7-1.4,2.1-2.5c-0.9,0.5-1.9,0.9-3,1.1c-0.9-0.9-2.1-1.4-3.4-1.4
	c-2.5-0.1-4.6,1.9-4.7,4.4c0,0.3,0,0.7,0.1,1C7.6,6.2,4.1,4.5,1.7,1.7C1.3,2.4,1.1,3.2,1.1,4c0,1.5,0.8,2.9,2.1,3.7
	C2.4,7.7,1.7,7.5,1,7.1c0,0,0,0,0,0.1c0,2.2,1.6,4,3.8,4.4c-0.7,0.2-1.4,0.2-2.1,0.1c0.7,1.8,2.4,3.1,4.4,3.1
	c-1.7,1.2-3.7,1.9-5.8,1.9c-0.4,0-0.7,0-1.1-0.1c2.2,1.3,4.6,2,7.2,2c7.1,0.2,13.1-5.3,13.3-12.5c0-0.1,0-0.1,0-0.2
	c0-0.2,0-0.4,0-0.6C21.5,4.7,22.3,3.9,22.9,3z"/>
</svg>
