<svg xmlns="http://www.w3.org/2000/svg" xmlns:xlink="http://www.w3.org/1999/xlink" width="104.877" height="123.128" viewBox="0 0 104.877 123.128"><defs><linearGradient id="a" x1="0.741" y1="1.217" x2="0.294" y2="-0.356" gradientUnits="objectBoundingBox"><stop offset="0" stop-color="#c31715"/><stop offset="1" stop-color="#f22e2b"/></linearGradient></defs><g transform="translate(1.107 0.982)"><path d="M-5270.257-4099.794l-6.9-1.807,5.635-4.379-.413-7.124,5.9,4,6.648-2.593-1.985,6.854,4.522,5.519-7.133.232-3.852,6.006Zm-32.742-2.368-6.9-1.81,5.633-4.378-.413-7.124,5.905,4,6.647-2.593-1.984,6.853,4.521,5.521-7.132.23-3.853,6.006Zm-23.86-14.67-6.9-1.809,5.633-4.377-.413-7.124,5.906,4,6.646-2.595-1.984,6.855,4.522,5.519-7.132.231-3.853,6.006Zm-11.829-24.916-6.9-1.809,5.635-4.379-.413-7.124,5.905,4,6.647-2.593-1.985,6.854,4.521,5.521-7.13.231-3.853,6Zm1.715-29.764-6.9-1.809,5.635-4.379-.414-7.124,5.906,4.006,6.647-2.595-1.984,6.854,4.521,5.519-7.132.232-3.853,6Zm80.715-19.281-6.9-1.81,5.634-4.377-.413-7.124,5.906,4,6.647-2.593-1.986,6.854,4.522,5.519-7.132.232-3.853,6Zm-59.293-.839-6.9-1.808,5.633-4.379-.413-7.124,5.905,4,6.647-2.593-1.984,6.854,4.521,5.521-7.132.23-3.853,6.006Zm29.294-9.163-6.9-1.807,5.633-4.379-.413-7.124,5.905,4,6.647-2.593-1.984,6.854,4.521,5.519-7.132.231-3.853,6.006Z" transform="translate(5345.59 4214.104)" stroke="rgba(0,0,0,0)" stroke-miterlimit="10" stroke-width="1" fill="url(#a)"/></g></svg>