<svg xmlns="http://www.w3.org/2000/svg" xmlns:xlink="http://www.w3.org/1999/xlink" width="115.564" height="19.009" viewBox="0 0 115.564 19.009"><defs><linearGradient id="a" x1="0.741" y1="1.217" x2="0.294" y2="-0.356" gradientUnits="objectBoundingBox"><stop offset="0" stop-color="#c31715"/><stop offset="1" stop-color="#f22e2b"/></linearGradient></defs><path d="M119.963,99.228,115.7,94.937,121.744,94l2.817-5.579,2.573,5.536,6.006.844-4.456,4.361.895,6.1-5.326-2.841-5.453,2.927Zm-24,0L91.7,94.937,97.744,94l2.818-5.579,2.572,5.536,6.007.844-4.456,4.361.895,6.1-5.327-2.841L94.8,105.345Zm-24,0L67.7,94.937,73.744,94l2.818-5.579,2.572,5.536,6.007.844L80.685,99.16l.895,6.1-5.326-2.841L70.8,105.345Zm-24,0L43.7,94.937,49.744,94l2.817-5.579,2.573,5.536,6.006.844L56.684,99.16l.895,6.1-5.326-2.841L46.8,105.345Zm-24,0L19.7,94.937,25.744,94l2.818-5.579,2.572,5.537,6.007.843L32.685,99.16l.895,6.1-5.326-2.841L22.8,105.345Z" transform="translate(-18.653 -87.273)" stroke="rgba(0,0,0,0)" stroke-miterlimit="10" stroke-width="1" fill="url(#a)"/></svg>