<svg xmlns="http://www.w3.org/2000/svg" width="89.936" height="96" viewBox="0 0 89.936 96"><g transform="translate(-0.064)" opacity="0.611"><ellipse cx="2.064" cy="2.055" rx="2.064" ry="2.055" transform="translate(48.636 18.489)" fill="#b5b5b5"/><ellipse cx="2.064" cy="2.055" rx="2.064" ry="2.055" transform="translate(61.05 18.489)" fill="#b5b5b5"/><ellipse cx="2.064" cy="2.055" rx="2.064" ry="2.055" transform="translate(73.457 18.489)" fill="#b5b5b5"/><ellipse cx="2.064" cy="2.055" rx="2.064" ry="2.055" transform="translate(85.871 18.489)" fill="#b5b5b5"/><ellipse cx="2.064" cy="2.041" rx="2.064" ry="2.041" transform="translate(48.636 27.534)" fill="#b5b5b5"/><ellipse cx="2.064" cy="2.041" rx="2.064" ry="2.041" transform="translate(61.05 27.534)" fill="#b5b5b5"/><ellipse cx="2.064" cy="2.041" rx="2.064" ry="2.041" transform="translate(73.457 27.534)" fill="#b5b5b5"/><ellipse cx="2.064" cy="2.041" rx="2.064" ry="2.041" transform="translate(85.871 27.534)" fill="#b5b5b5"/><ellipse cx="2.064" cy="2.055" rx="2.064" ry="2.055" transform="translate(48.636 36.558)" fill="#b5b5b5"/><ellipse cx="2.064" cy="2.055" rx="2.064" ry="2.055" transform="translate(61.05 36.558)" fill="#b5b5b5"/><ellipse cx="2.064" cy="2.055" rx="2.064" ry="2.055" transform="translate(73.457 36.558)" fill="#b5b5b5"/><ellipse cx="2.064" cy="2.055" rx="2.064" ry="2.055" transform="translate(85.871 36.558)" fill="#b5b5b5"/><ellipse cx="2.064" cy="2.055" rx="2.064" ry="2.055" transform="translate(48.636 46.002)" fill="#b5b5b5"/><ellipse cx="2.064" cy="2.055" rx="2.064" ry="2.055" transform="translate(61.05 46.002)" fill="#b5b5b5"/><ellipse cx="2.064" cy="2.055" rx="2.064" ry="2.055" transform="translate(73.457 46.002)" fill="#b5b5b5"/><ellipse cx="2.064" cy="2.055" rx="2.064" ry="2.055" transform="translate(85.871 46.002)" fill="#b5b5b5"/><ellipse cx="2.064" cy="2.055" rx="2.064" ry="2.055" transform="translate(48.636 54.62)" fill="#b5b5b5"/><ellipse cx="2.064" cy="2.055" rx="2.064" ry="2.055" transform="translate(61.05 54.62)" fill="#b5b5b5"/><ellipse cx="2.064" cy="2.055" rx="2.064" ry="2.055" transform="translate(73.457 54.62)" fill="#b5b5b5"/><ellipse cx="2.064" cy="2.055" rx="2.064" ry="2.055" transform="translate(85.871 54.62)" fill="#b5b5b5"/><ellipse cx="2.064" cy="2.055" rx="2.064" ry="2.055" transform="translate(48.636 63.246)" fill="#b5b5b5"/><ellipse cx="2.064" cy="2.055" rx="2.064" ry="2.055" transform="translate(61.05 63.246)" fill="#b5b5b5"/><ellipse cx="2.064" cy="2.055" rx="2.064" ry="2.055" transform="translate(73.457 63.246)" fill="#b5b5b5"/><ellipse cx="2.064" cy="2.055" rx="2.064" ry="2.055" transform="translate(85.871 63.246)" fill="#b5b5b5"/><ellipse cx="2.064" cy="2.055" rx="2.064" ry="2.055" transform="translate(48.636 73.109)" fill="#b5b5b5"/><ellipse cx="2.064" cy="2.055" rx="2.064" ry="2.055" transform="translate(61.05 73.109)" fill="#b5b5b5"/><ellipse cx="2.064" cy="2.055" rx="2.064" ry="2.055" transform="translate(73.457 73.109)" fill="#b5b5b5"/><ellipse cx="2.064" cy="2.055" rx="2.064" ry="2.055" transform="translate(85.871 73.109)" fill="#b5b5b5"/><ellipse cx="2.064" cy="2.055" rx="2.064" ry="2.055" transform="translate(48.636 82.553)" fill="#b5b5b5"/><ellipse cx="2.064" cy="2.055" rx="2.064" ry="2.055" transform="translate(61.05 82.553)" fill="#b5b5b5"/><ellipse cx="2.064" cy="2.055" rx="2.064" ry="2.055" transform="translate(73.457 82.553)" fill="#b5b5b5"/><ellipse cx="2.064" cy="2.055" rx="2.064" ry="2.055" transform="translate(85.871 82.553)" fill="#b5b5b5"/><ellipse cx="2.064" cy="2.055" rx="2.064" ry="2.055" transform="translate(48.636 91.179)" fill="#b5b5b5"/><ellipse cx="2.064" cy="2.055" rx="2.064" ry="2.055" transform="translate(61.05 91.179)" fill="#b5b5b5"/><ellipse cx="2.064" cy="2.055" rx="2.064" ry="2.055" transform="translate(73.457 91.179)" fill="#b5b5b5"/><ellipse cx="2.064" cy="2.055" rx="2.064" ry="2.055" transform="translate(85.871 91.179)" fill="#b5b5b5"/><ellipse cx="2.064" cy="2.055" rx="2.064" ry="2.055" transform="translate(0.064 19.2)" fill="#b5b5b5"/><ellipse cx="2.064" cy="2.055" rx="2.064" ry="2.055" transform="translate(12.479 19.2)" fill="#b5b5b5"/><ellipse cx="2.064" cy="2.055" rx="2.064" ry="2.055" transform="translate(24.886 19.2)" fill="#b5b5b5"/><ellipse cx="2.064" cy="2.055" rx="2.064" ry="2.055" transform="translate(37.3 19.2)" fill="#b5b5b5"/><ellipse cx="2.064" cy="2.048" rx="2.064" ry="2.048" transform="translate(0.064 28.238)" fill="#b5b5b5"/><ellipse cx="2.064" cy="2.048" rx="2.064" ry="2.048" transform="translate(12.479 28.238)" fill="#b5b5b5"/><ellipse cx="2.064" cy="2.048" rx="2.064" ry="2.048" transform="translate(24.886 28.238)" fill="#b5b5b5"/><ellipse cx="2.064" cy="2.048" rx="2.064" ry="2.048" transform="translate(37.3 28.238)" fill="#b5b5b5"/><ellipse cx="2.064" cy="2.055" rx="2.064" ry="2.055" transform="translate(48.636 0)" fill="#b5b5b5"/><ellipse cx="2.064" cy="2.055" rx="2.064" ry="2.055" transform="translate(61.05 0)" fill="#b5b5b5"/><ellipse cx="2.064" cy="2.055" rx="2.064" ry="2.055" transform="translate(73.457 0)" fill="#b5b5b5"/><ellipse cx="2.064" cy="2.055" rx="2.064" ry="2.055" transform="translate(85.871 0)" fill="#b5b5b5"/><ellipse cx="2.064" cy="2.041" rx="2.064" ry="2.041" transform="translate(48.636 9.045)" fill="#b5b5b5"/><ellipse cx="2.064" cy="2.041" rx="2.064" ry="2.041" transform="translate(61.05 9.045)" fill="#b5b5b5"/><ellipse cx="2.064" cy="2.041" rx="2.064" ry="2.041" transform="translate(73.457 9.045)" fill="#b5b5b5"/><ellipse cx="2.064" cy="2.041" rx="2.064" ry="2.041" transform="translate(85.871 9.045)" fill="#b5b5b5"/><ellipse cx="2.064" cy="2.055" rx="2.064" ry="2.055" transform="translate(0.064 0.711)" fill="#b5b5b5"/><ellipse cx="2.064" cy="2.055" rx="2.064" ry="2.055" transform="translate(12.479 0.711)" fill="#b5b5b5"/><ellipse cx="2.064" cy="2.055" rx="2.064" ry="2.055" transform="translate(24.886 0.711)" fill="#b5b5b5"/><ellipse cx="2.064" cy="2.055" rx="2.064" ry="2.055" transform="translate(37.3 0.711)" fill="#b5b5b5"/><ellipse cx="2.064" cy="2.041" rx="2.064" ry="2.041" transform="translate(0.064 9.756)" fill="#b5b5b5"/><ellipse cx="2.064" cy="2.041" rx="2.064" ry="2.041" transform="translate(12.479 9.756)" fill="#b5b5b5"/><ellipse cx="2.064" cy="2.041" rx="2.064" ry="2.041" transform="translate(24.886 9.756)" fill="#b5b5b5"/><ellipse cx="2.064" cy="2.041" rx="2.064" ry="2.041" transform="translate(37.3 9.756)" fill="#b5b5b5"/><ellipse cx="2.064" cy="2.055" rx="2.064" ry="2.055" transform="translate(0.064 37.269)" fill="#b5b5b5"/><ellipse cx="2.064" cy="2.055" rx="2.064" ry="2.055" transform="translate(12.479 37.269)" fill="#b5b5b5"/><ellipse cx="2.064" cy="2.055" rx="2.064" ry="2.055" transform="translate(24.886 37.269)" fill="#b5b5b5"/><ellipse cx="2.064" cy="2.055" rx="2.064" ry="2.055" transform="translate(37.3 37.269)" fill="#b5b5b5"/><ellipse cx="2.064" cy="2.055" rx="2.064" ry="2.055" transform="translate(0.064 46.713)" fill="#b5b5b5"/><ellipse cx="2.064" cy="2.055" rx="2.064" ry="2.055" transform="translate(12.479 46.713)" fill="#b5b5b5"/><ellipse cx="2.064" cy="2.055" rx="2.064" ry="2.055" transform="translate(24.886 46.713)" fill="#b5b5b5"/><ellipse cx="2.064" cy="2.055" rx="2.064" ry="2.055" transform="translate(37.3 46.713)" fill="#b5b5b5"/><ellipse cx="2.064" cy="2.055" rx="2.064" ry="2.055" transform="translate(0.064 55.332)" fill="#b5b5b5"/><ellipse cx="2.064" cy="2.055" rx="2.064" ry="2.055" transform="translate(12.479 55.332)" fill="#b5b5b5"/><ellipse cx="2.064" cy="2.055" rx="2.064" ry="2.055" transform="translate(24.886 55.332)" fill="#b5b5b5"/><ellipse cx="2.064" cy="2.055" rx="2.064" ry="2.055" transform="translate(37.3 55.332)" fill="#b5b5b5"/><ellipse cx="2.064" cy="2.055" rx="2.064" ry="2.055" transform="translate(0.064 63.957)" fill="#b5b5b5"/><ellipse cx="2.064" cy="2.055" rx="2.064" ry="2.055" transform="translate(12.479 63.957)" fill="#b5b5b5"/><ellipse cx="2.064" cy="2.055" rx="2.064" ry="2.055" transform="translate(24.886 63.957)" fill="#b5b5b5"/><ellipse cx="2.064" cy="2.055" rx="2.064" ry="2.055" transform="translate(37.3 63.957)" fill="#b5b5b5"/><ellipse cx="2.064" cy="2.055" rx="2.064" ry="2.055" transform="translate(0.064 73.82)" fill="#b5b5b5"/><ellipse cx="2.064" cy="2.055" rx="2.064" ry="2.055" transform="translate(12.479 73.82)" fill="#b5b5b5"/><ellipse cx="2.064" cy="2.055" rx="2.064" ry="2.055" transform="translate(24.886 73.82)" fill="#b5b5b5"/><ellipse cx="2.064" cy="2.055" rx="2.064" ry="2.055" transform="translate(37.3 73.82)" fill="#b5b5b5"/><ellipse cx="2.064" cy="2.055" rx="2.064" ry="2.055" transform="translate(0.064 83.264)" fill="#b5b5b5"/><ellipse cx="2.064" cy="2.055" rx="2.064" ry="2.055" transform="translate(12.479 83.264)" fill="#b5b5b5"/><ellipse cx="2.064" cy="2.055" rx="2.064" ry="2.055" transform="translate(24.886 83.264)" fill="#b5b5b5"/><ellipse cx="2.064" cy="2.055" rx="2.064" ry="2.055" transform="translate(37.3 83.264)" fill="#b5b5b5"/><ellipse cx="2.064" cy="2.055" rx="2.064" ry="2.055" transform="translate(0.064 91.89)" fill="#b5b5b5"/><ellipse cx="2.064" cy="2.055" rx="2.064" ry="2.055" transform="translate(12.479 91.89)" fill="#b5b5b5"/><ellipse cx="2.064" cy="2.055" rx="2.064" ry="2.055" transform="translate(24.886 91.89)" fill="#b5b5b5"/><ellipse cx="2.064" cy="2.055" rx="2.064" ry="2.055" transform="translate(37.3 91.89)" fill="#b5b5b5"/></g></svg>