<svg xmlns="http://www.w3.org/2000/svg" width="74.161" height="57.382" viewBox="0 0 74.161 57.382"><g transform="translate(0.9 0.915)"><path d="M165.51,119.833l-16.665,3.206c-.883-5.465-5.66-9.114-10.67-8.151s-8.352,6.174-7.468,11.64l-16.665,3.206" transform="translate(-103.622 -114.734)" fill="none" stroke="#b5b5b5" stroke-linecap="round" stroke-linejoin="round" stroke-width="1.8"/><line y2="31.032" transform="translate(36.154 20.172)" fill="none" stroke="#b5b5b5" stroke-linecap="round" stroke-linejoin="round" stroke-width="1.8"/><path d="M166.8,225.8H152.212a4.193,4.193,0,0,0-4,4.363H170.8A4.193,4.193,0,0,0,166.8,225.8Z" transform="translate(-123.352 -174.599)" fill="none" stroke="#b5b5b5" stroke-linecap="round" stroke-linejoin="round" stroke-width="1.8"/><path d="M98.235,167.836H111.6l-6.681-20.566Z" transform="translate(-94.494 -132.271)" fill="none" stroke="#f30200" stroke-linecap="round" stroke-linejoin="round" stroke-width="1.8"/><path d="M220.025,146.32h13.362l-6.681-20.566Z" transform="translate(-164.817 -120.674)" fill="none" stroke="#f30200" stroke-linecap="round" stroke-linejoin="round" stroke-width="1.8"/><path d="M105.378,197.281H94.333a5.19,5.19,0,0,1-4.95-5.4h20.946A5.19,5.19,0,0,1,105.378,197.281Z" transform="translate(-89.383 -156.315)" fill="none" stroke="#b5b5b5" stroke-linecap="round" stroke-linejoin="round" stroke-width="1.8"/><path d="M227.047,175.765H216a5.19,5.19,0,0,1-4.951-5.4H232A5.19,5.19,0,0,1,227.047,175.765Z" transform="translate(-159.636 -144.718)" fill="none" stroke="#b5b5b5" stroke-linecap="round" stroke-linejoin="round" stroke-width="1.8"/><path d="M5.515-.19a5.306,5.306,0,0,1,5.353,5.7,6.155,6.155,0,0,1-5.7,6.055,5.306,5.306,0,0,1-5.353-5.7A6.155,6.155,0,0,1,5.515-.19Z" transform="matrix(0.924, -0.383, 0.383, 0.924, 29.044, 6.913)" fill="none" stroke="#f30200" stroke-linecap="round" stroke-width="1.8"/></g></svg>