<svg xmlns="http://www.w3.org/2000/svg" width="73" height="66" viewBox="0 0 73 66"><path d="M574.725,1524.344c.049-1.189-.653-2.263-2.083-3.285v6.216l.564-.349A2.941,2.941,0,0,0,574.725,1524.344Z" transform="translate(-534.452 -1471.646)" fill="none"/><path d="M567.351,1505.512c-.878.392-2.923,1.5-2.923,3.4,0,2.441,1.1,3.813,4.186,5.238l.028.012v-9.22Z" transform="translate(-533.716 -1470.149)" fill="none"/><path d="M565.479,1536.485a.832.832,0,0,0,.831-.835,4.738,4.738,0,0,1,.569-2.474,11.744,11.744,0,0,1-1.5-.715,6.514,6.514,0,0,0-.728,3.189A.832.832,0,0,0,565.479,1536.485Z" transform="translate(-533.648 -1472.86)" fill="#f30200"/><path d="M570.641,1538.861a.833.833,0,0,0,.831-.832v-3.147c-.386-.164-1.06-.422-1.659-.645v3.792A.833.833,0,0,0,570.641,1538.861Z" transform="translate(-534.144 -1472.86)" fill="#b5b5b5"/><path d="M569.813,1525.422c.363.15.987.387,1.659.633v-4.312c-.6.359-1.219.746-1.659,1.072Z" transform="translate(-534.144 -1471.556)" fill="#b5b5b5"/><path d="M565.563,1515.71c.508-.34,1.023-.664,1.57-.99-2.771-1.491-3.875-3.187-3.875-5.813a4.627,4.627,0,0,1,2.31-3.747c-.129-.033-.26-.068-.391-.1-.611-.167-1.217-.328-1.594-.434a5.688,5.688,0,0,0-1.984,4.284A7.552,7.552,0,0,0,565.563,1515.71Z" transform="translate(-533.478 -1470.243)" fill="#f30200"/><path d="M575.895,1524.391a4.014,4.014,0,0,1-1.221,2.868,11,11,0,0,1,1.514.786,5.785,5.785,0,0,0,1.367-3.628,6.064,6.064,0,0,0-2.148-4.788l-.108.059-1.484.769A4.8,4.8,0,0,1,575.895,1524.391Z" transform="translate(-534.666 -1472.86)" fill="#f30200"/><path d="M571.472,1506.879c-.5-.16-1.055-.335-1.659-.516v6.87c.587-.307,1.261-.652,1.659-.856Z" transform="translate(-534.144 -1470.148)" fill="#b5b5b5"/><path d="M585.053,1493.155a5.763,5.763,0,0,0-3.515-5.039h0a5,5,0,0,0-5.471.488.832.832,0,0,0,.459,1.468.815.815,0,0,0,.606-.19,3.513,3.513,0,0,1,3.7-.258,4.193,4.193,0,0,1,2.56,3.531c0,3.864-3.47,5.665-7.06,6.718a13.275,13.275,0,0,1,2.01,1.093C582.8,1499.366,585.053,1496.74,585.053,1493.155Z" transform="translate(-535.233 -1468.407)" fill="#f30200"/><path d="M601.643,1481.128c-3.887-.34-6.774-1.934-10.116-3.78a56.456,56.456,0,0,0-8.819-4.157,8.183,8.183,0,0,0-2.7-.5c-3.925,0-6.1,3.651-7.845,6.582-1.219,2.049-2.478,4.164-4.089,4.718l-.681.234V1477.4l.409-.106a5.663,5.663,0,0,0,4.053-5.639c0-3.194-2.337-5.792-5.211-5.792s-5.209,2.6-5.209,5.792a5.662,5.662,0,0,0,4.051,5.639l.411.106v6.823l-.685-.242c-1.617-.565-2.872-2.671-4.085-4.708-1.748-2.933-3.92-6.584-7.843-6.584a8.2,8.2,0,0,0-2.7.5,56.266,56.266,0,0,0-8.815,4.155c-3.353,1.85-6.238,3.442-10.118,3.782a1.554,1.554,0,0,0-1.5,1.691c.072,2.063,3.328,5.229,7.2,5.229a7.119,7.119,0,0,0,2.777-.567l.418-.176.224.429a6.515,6.515,0,0,0,5.82,3.888,8.935,8.935,0,0,0,3.842-.98,9.368,9.368,0,0,1,.742-2.012c-.042-.049-.084-.094-.127-.143a10.24,10.24,0,0,1-4.458,1.473c-2.455,0-4.3-1.759-5.262-4.974a7.383,7.383,0,0,1-3.977,1.4,6.869,6.869,0,0,1-5.281-2.715l-.605-.833.955-.117c3.834-.474,6.694-2.052,10-3.876a54.257,54.257,0,0,1,8.617-4.068,6.778,6.778,0,0,1,2.248-.427c3.115,0,4.882,2.966,6.592,5.834l.1.164c1.373,2.307,2.927,4.919,5.485,5.407l.439.082v11.926c.5.157,1,.316,1.5.478v-12.357l.432-.087c2.548-.509,4.142-3.184,5.546-5.541,1.746-2.938,3.516-5.907,6.637-5.907a6.85,6.85,0,0,1,2.248.424,54.725,54.725,0,0,1,8.589,4.054c3.315,1.831,6.169,3.409,10.028,3.892l.955.12-.6.83a6.881,6.881,0,0,1-5.281,2.715,7.156,7.156,0,0,1-3.939-1.411c-.7,2.446-2.415,4.985-5.3,4.985a9.3,9.3,0,0,1-4.458-1.47l-.135.148a9.393,9.393,0,0,1,.776,2.021,9.493,9.493,0,0,0,3.817.964,6.515,6.515,0,0,0,5.82-3.888l.221-.424.413.167a6.981,6.981,0,0,0,2.754.572c3.9,0,7.155-3.166,7.229-5.229A1.556,1.556,0,0,0,601.643,1481.128Zm-35-5.344a4.154,4.154,0,1,1,3.716-4.132A3.943,3.943,0,0,1,566.641,1475.784Z" transform="translate(-530.144 -1465.86)" fill="#b5b5b5"/><path d="M572.641,1499.817v-.23l-.425.1Z" transform="translate(-534.321 -1469.105)" fill="#231f20"/><path d="M574.678,1502.745c-1.7-.671-5.855-1.874-8.9-2.661-3.671-.95-7.883-2.6-7.883-6.929a4.193,4.193,0,0,1,2.56-3.531,3.5,3.5,0,0,1,3.7.258.832.832,0,0,0,1.065-1.278,4.588,4.588,0,0,0-2.99-1.067,5.842,5.842,0,0,0-2.48.579,5.765,5.765,0,0,0-3.517,5.039c0,6.172,6.868,7.954,9.124,8.54,3.042.785,7.132,1.972,8.714,2.6.927.368,3.959,1.782,3.959,4.615a5.646,5.646,0,0,1-2.406,4.884,28.007,28.007,0,0,1-2.951,1.66,53.416,53.416,0,0,0-5.529,3.17c-2.354,1.691-3.5,3.653-3.409,5.829.122,3.147,2.034,4.509,3.887,5.428.672.335,2.314.929,3.632,1.407a20.476,20.476,0,0,1,1.926.739,3.664,3.664,0,0,1,1.984,3.625.83.83,0,1,0,1.659,0,5.389,5.389,0,0,0-2.867-5.1,32.7,32.7,0,0,0-3.157-1.24c-1.053-.38-2.045-.741-2.551-.971a4.393,4.393,0,0,1-2.857-4c-.068-1.583.8-3,2.658-4.329a55.923,55.923,0,0,1,5.394-3.1c1.336-.711,2.6-1.381,3.112-1.742a7.158,7.158,0,0,0,3.131-6.263C579.685,1505.029,575.852,1503.21,574.678,1502.745Z" transform="translate(-533.77 -1472.86)" fill="#b5b5b5"/></svg>