<svg xmlns="http://www.w3.org/2000/svg" width="49.782" height="64.508" viewBox="0 0 49.782 64.508"><g transform="translate(0.909 0.908)"><g transform="translate(0 0)"><path d="M288.092,355.076a24.767,24.767,0,0,0,3.436-12.724v.1a27.381,27.381,0,0,0-.2-3.128c-1.4-12.232-11.576-21.867-23.88-21.816-13.244.055-23.939,11.313-23.886,25.143v-.622A24.768,24.768,0,0,0,247,354.75" transform="translate(-243.563 -317.505)" fill="rgba(0,0,0,0)" stroke="#f30200" stroke-linecap="round" stroke-linejoin="round" stroke-width="1.817"/><path d="M291.6,382.9v-1.624H243.74V382.9h2.951V395.02H243.74v1.624H291.6V395.02h-2.951V382.9Zm-31.808,0H264V395.02h-4.217Zm-1.555,12.123h-4.217V382.9h4.217ZM265.56,382.9h4.217V395.02H265.56Zm5.772,0h4.217V395.02h-4.217Zm5.771,0h4.217V395.02H277.1Zm-28.857,0h4.217V395.02h-4.217Zm38.846,12.123h-4.217V382.9h4.217Z" transform="translate(-243.612 -333.045)" fill="#b5b5b5"/><path d="M254.552,376h1.555v-7.347h2.66v7.381h1.555v-7.381h2.66v7.415h1.555v-7.415h2.66V376.1h1.555v-7.449h2.66v7.483h1.555v-7.483h2.66v7.517h1.555v-7.517h2.66V376.2H281.4v-7.551h2.66v7.585h1.555v-7.585h1.362V367.03H252.509v1.624h2.043Z" transform="translate(-246.026 -329.574)" fill="#b5b5b5"/><path d="M284.448,355.555c0-.023,0-.048,0-.071a14.358,14.358,0,0,0-9.516-13.677l-.064-.35a4.079,4.079,0,0,0-1.957-2.78v-3.741h-4.278V338.7a4.093,4.093,0,0,0-1.958,3.022,14.342,14.342,0,0,0-9.769,13.761c0,.024,0,.047,0,.071h-1.892v1.624H286.3v-1.624Zm-13.092-19v1.581a4.2,4.2,0,0,0-1.169.006v-1.587Zm-.565,3.166a2.58,2.58,0,0,1,2.435,1.626,13.224,13.224,0,0,0-4.851-.046A2.592,2.592,0,0,1,270.791,339.725Zm-12.272,15.81c-.329-3.523,3.319-12.974,11.913-12.974,7.45,0,12.3,6.487,12.414,12.974Z" transform="translate(-246.716 -321.753)" fill="#b5b5b5"/><path d="M251.739,344.738c-.04-10.414,8.013-18.89,17.985-18.932s18.09,8.367,18.129,18.781" transform="translate(-245.814 -319.528)" fill="none" stroke="#f30200" stroke-linecap="round" stroke-linejoin="round" stroke-width="1.817"/></g><path d="M.128,63.6V61.975H3.079V49.853H.128V48.228H47.985v1.624H45.034V61.975h2.951V63.6Zm39.134-1.623h4.217V49.853H39.262Zm-5.771,0h4.216V49.853H33.491Zm-5.772,0h4.217V49.853H27.719Zm-5.772,0h4.217V49.853H21.947Zm-5.771,0h4.216V49.853H16.176Zm-5.772,0h4.217V49.853H10.4Zm-5.772,0H8.85V49.853H4.633Zm33.4-15.311V39.08h-2.66v7.55H33.816V39.08H31.156V46.6H29.6V39.08H26.941v7.483H25.386V39.08H22.726v7.449H21.171V39.08h-2.66v7.415H16.956V39.08H14.3v7.381H12.741V39.08H10.08v7.347H8.526V39.08H6.483V37.456h23.6l-26.65-.211A24.737,24.737,0,0,1,0,24.731C.16,11.091,10.774.055,23.887,0c13.228-.054,24,11.086,24.078,24.893A24.766,24.766,0,0,1,44.528,37.57l-3.58-.028V39.08H39.586v7.584ZM0,24.947v0Zm0-.426c0,.071,0,.14,0,.21s0,.144,0,.216Zm47.964.372v0Z" transform="translate(0 0)" fill="none"/></g></svg>