<svg xmlns="http://www.w3.org/2000/svg" width="69.2" height="67.624" viewBox="0 0 69.2 67.624"><path d="M52.294,39.265s-4.471-2.324-5.626-2.865c1.251-1.655,8.141-12.613,8.141-12.613L40.663,37.715l5.677,2.846L38.2,53.144Z" transform="translate(-11.837 -4.741)" fill="#b5b5b5"/><path d="M71.525,45.965l1.474.85.249-.722A27.053,27.053,0,0,0,27.254,19.529l-.5.577,1.476.851.34-.388A25.381,25.381,0,0,1,71.691,45.475Z" transform="translate(-12.004 -4.944)" fill="#f30200"/><path d="M22.092,30.755,20.617,29.9l-.248.725A27.06,27.06,0,0,0,66.362,57.192l.5-.578-1.475-.851-.341.389A25.381,25.381,0,0,1,21.926,31.245Z" transform="translate(-12.119 -4.649)" fill="#f30200"/><path d="M79.818,29.923A33.252,33.252,0,0,0,45.525,5.092l-.762.049L45.22,6.89l.517-.031A31.5,31.5,0,0,1,78.1,30.37v0A32.18,32.18,0,0,1,61.653,67.167l-.454.23.462,1.753.7-.35A33.954,33.954,0,0,0,79.818,29.923Z" transform="translate(-11.74 -5.022)" fill="#b5b5b5"/><path d="M47.424,70.757A31.463,31.463,0,0,1,15.052,47.251v0A32.19,32.19,0,0,1,31.5,10.452l.455-.23L31.5,8.472l-.693.349A33.952,33.952,0,0,0,13.341,47.7a33.26,33.26,0,0,0,32.144,24.9q1.071,0,2.152-.07l.763-.05-.46-1.749Z" transform="translate(-12.218 -4.97)" fill="#b5b5b5"/></svg>