<svg id="ilawyerlogo" xmlns="http://www.w3.org/2000/svg" width="190" height="16.441" viewBox="0 0 190 16.441">
  <path id="Path_217" data-name="Path 217" d="M154.7,0h.841V.9c0,.654-.355.99-1.046.99h-.841V.99C153.654.336,154.009,0,154.7,0Zm-1.046,4.391c0-.654.355-.99,1.046-.99h.841v9.492H154.7c-.691,0-1.046-.336-1.046-.99Z" transform="translate(-105.804)" fill="#c0c5d4"/>
  <path id="Path_218" data-name="Path 218" d="M169.969,10.968a1.348,1.348,0,0,0,.9.318v.859a.712.712,0,0,1-.579.785,1.229,1.229,0,0,1-.953-.112,2.721,2.721,0,0,1-1.2-1.046,3.472,3.472,0,0,1-.5-1.925V.99c0-.654.355-.99,1.046-.99h.841V9.847A1.41,1.41,0,0,0,169.969,10.968Z" transform="translate(-115.43)" fill="#c0c5d4"/>
  <path id="Path_219" data-name="Path 219" d="M189.292,11.062a3.545,3.545,0,0,1,1.4,2.84V19.75h-.561a1.159,1.159,0,0,1-1.065-.766,4.125,4.125,0,0,1-2.915,1.046,4.767,4.767,0,0,1-3.139-1.1,3.511,3.511,0,0,1-1.4-2.821V13.9a3.546,3.546,0,0,1,1.4-2.84,4.766,4.766,0,0,1,3.139-1.1A4.84,4.84,0,0,1,189.292,11.062Zm-3.139.785a2.928,2.928,0,0,0-1.943.673,1.753,1.753,0,0,0-.71,1.383v2.2a1.78,1.78,0,0,0,.71,1.383,3.214,3.214,0,0,0,3.886,0,1.753,1.753,0,0,0,.71-1.383V13.9a1.753,1.753,0,0,0-.71-1.383A2.925,2.925,0,0,0,186.153,11.846Z" transform="translate(-125.057 -6.858)" fill="#c0c5d4"/>
  <path id="Path_220" data-name="Path 220" d="M229.065,11.91c0-.654.355-.99,1.046-.99h.841v5.848a3.926,3.926,0,0,1-1.009,2.859,3.732,3.732,0,0,1-2.8,1.065,3.631,3.631,0,0,1-2.859-1.215,4.089,4.089,0,0,1-5.661.149,3.925,3.925,0,0,1-1.009-2.859V11.91c0-.654.355-.99,1.046-.99h.841v5.848a2.141,2.141,0,0,0,.486,1.551,1.909,1.909,0,0,0,1.439.486,1.878,1.878,0,0,0,1.383-.5,2.119,2.119,0,0,0,.523-1.532V11.91c0-.654.355-.99,1.046-.99h.841v5.848a2.128,2.128,0,0,0,.542,1.532,1.878,1.878,0,0,0,1.383.5,1.938,1.938,0,0,0,1.439-.486,2.141,2.141,0,0,0,.486-1.551V11.91Z" transform="translate(-149.845 -7.519)" fill="#c0c5d4"/>
  <path id="Path_221" data-name="Path 221" d="M273.52,10.919l-3.7,10.426c-.093.243-.187.467-.28.71a3.113,3.113,0,0,1-.3.617,2.724,2.724,0,0,1-1.065.934,1.509,1.509,0,0,1-.972.112.713.713,0,0,1-.561-.785v-.859a1.509,1.509,0,0,0,.635-.149.767.767,0,0,0,.467-.467l.374-.953a1.47,1.47,0,0,1-1.14-.916l-2.784-7.81a.668.668,0,0,1,0-.6.557.557,0,0,1,.542-.262h1.177l2.784,7.847h.019l2.541-7.138a.982.982,0,0,1,.99-.71h1.27Z" transform="translate(-181.875 -7.518)" fill="#c0c5d4"/>
  <path id="Path_222" data-name="Path 222" d="M304.326,10.446a4.054,4.054,0,0,1,1.177.99,2.775,2.775,0,0,1,.523,1.644,2.764,2.764,0,0,1-.318,1.4,2.841,2.841,0,0,1-.8.9,3.384,3.384,0,0,1-1.14.542,4.278,4.278,0,0,1-1.233.168h-2.279a1.724,1.724,0,0,1-.355-.019.74.74,0,0,1-.3-.149v.785a1.192,1.192,0,0,0,.673,1.065,2.668,2.668,0,0,0,1.289.374,3.8,3.8,0,0,0,1.364-.093,1.982,1.982,0,0,0,1.14-.617.843.843,0,0,1,1.121-.168l.916.448a3.347,3.347,0,0,1-.71,1.046,3.872,3.872,0,0,1-1.607.972,5.337,5.337,0,0,1-1.85.3,6.6,6.6,0,0,1-1.457-.149,4.294,4.294,0,0,1-1.364-.579,3.019,3.019,0,0,1-1.065-1.252,3.833,3.833,0,0,1-.336-1.626V13.343a3.318,3.318,0,0,1,.318-1.383,3.253,3.253,0,0,1,1.588-1.532,4.959,4.959,0,0,1,2.2-.467A5.756,5.756,0,0,1,304.326,10.446Zm-.691,3.531a1.012,1.012,0,0,0,.168-1.663,2.779,2.779,0,0,0-1.383-.467,5.694,5.694,0,0,0-1.439.112,2.262,2.262,0,0,0-.953.448,1.151,1.151,0,0,0-.43.9v.9h3.12A1.75,1.75,0,0,0,303.635,13.978Z" transform="translate(-205.001 -6.859)" fill="#c0c5d4"/>
  <path id="Path_223" data-name="Path 223" d="M329.99,14.245a3.138,3.138,0,0,1,1.084-2.578,3.2,3.2,0,0,1,2.148-.747h1.233v.841c0,.691-.318,1.046-.972,1.046h-.262a1.311,1.311,0,0,0-1.345,1.439v6.166h-.841c-.691,0-1.046-.336-1.046-.99V14.245Z" transform="translate(-227.227 -7.519)" fill="#c0c5d4"/>
  <path id="Path_224" data-name="Path 224" d="M359.617,12.332a1.938,1.938,0,0,0-1.439-.486,1.763,1.763,0,0,0-1.383.523,2.191,2.191,0,0,0-.542,1.532V19.75h-.841c-.691,0-1.046-.336-1.046-.99V13.9a2.18,2.18,0,0,0-.523-1.532,1.817,1.817,0,0,0-1.383-.523,1.909,1.909,0,0,0-1.439.486,2.286,2.286,0,0,0-.486,1.57V19.75H349.7c-.691,0-1.046-.336-1.046-.99V13.9a3.986,3.986,0,0,1,1.009-2.859,3.619,3.619,0,0,1,2.8-1.084,3.671,3.671,0,0,1,2.485.878,2.873,2.873,0,0,1,.374.355c.131-.131.243-.262.355-.355a4.091,4.091,0,0,1,5.306.206A3.986,3.986,0,0,1,361.99,13.9V19.75h-.841c-.691,0-1.046-.336-1.046-.99V13.9A2.285,2.285,0,0,0,359.617,12.332Z" transform="translate(-240.076 -6.858)" fill="#c0c5d4"/>
  <path id="Path_225" data-name="Path 225" d="M405.048,11.062a3.545,3.545,0,0,1,1.4,2.84V19.75h-.561a1.159,1.159,0,0,1-1.065-.766,4.124,4.124,0,0,1-2.914,1.046,4.767,4.767,0,0,1-3.139-1.1,3.51,3.51,0,0,1-1.4-2.821V13.9a3.545,3.545,0,0,1,1.4-2.84,4.766,4.766,0,0,1,3.139-1.1A4.84,4.84,0,0,1,405.048,11.062Zm-3.139.785a2.927,2.927,0,0,0-1.943.673,1.754,1.754,0,0,0-.71,1.383v2.2a1.78,1.78,0,0,0,.71,1.383,3.214,3.214,0,0,0,3.886,0,1.753,1.753,0,0,0,.71-1.383V13.9a1.753,1.753,0,0,0-.71-1.383A2.926,2.926,0,0,0,401.909,11.846Z" transform="translate(-273.624 -6.858)" fill="#c0c5d4"/>
  <path id="Path_226" data-name="Path 226" d="M433.369,14.245a3.139,3.139,0,0,1,1.083-2.578,3.2,3.2,0,0,1,2.149-.747h1.233v.841c0,.691-.318,1.046-.971,1.046H436.6a1.311,1.311,0,0,0-1.345,1.439v6.166h-.841c-.691,0-1.046-.336-1.046-.99Z" transform="translate(-298.413 -7.519)" fill="#c0c5d4"/>
  <path id="Path_227" data-name="Path 227" d="M452.567.99c0-.654.355-.99,1.046-.99h.841V7.343h.691c.374,0,.729.019.953-.355l1.775-2.915a1.3,1.3,0,0,1,1.14-.673h1.476l-2.261,3.7a3.164,3.164,0,0,1-.373.523,2.824,2.824,0,0,1,1.42,1.57l1.626,3.7h-1.215a1.078,1.078,0,0,1-1.1-.6L457.555,9.94a1.089,1.089,0,0,0-1.065-.71h-2.037v3.662h-.841c-.691,0-1.046-.336-1.046-.99V.99Z" transform="translate(-311.632)" fill="#c0c5d4"/>
  <path id="Path_228" data-name="Path 228" d="M489.542,10.446a4.054,4.054,0,0,1,1.177.99,2.775,2.775,0,0,1,.523,1.644,2.764,2.764,0,0,1-.318,1.4,2.839,2.839,0,0,1-.8.9,3.384,3.384,0,0,1-1.14.542,4.278,4.278,0,0,1-1.233.168h-2.279a1.724,1.724,0,0,1-.355-.019.742.742,0,0,1-.3-.149v.785a1.193,1.193,0,0,0,.673,1.065,2.668,2.668,0,0,0,1.289.374,3.8,3.8,0,0,0,1.364-.093,2.431,2.431,0,0,0,.9-.392,2.406,2.406,0,0,0,.243-.224.843.843,0,0,1,1.121-.168l.916.448a3.348,3.348,0,0,1-.71,1.046,3.872,3.872,0,0,1-1.607.972,5.335,5.335,0,0,1-1.849.3,6.6,6.6,0,0,1-1.457-.149,4.3,4.3,0,0,1-1.364-.579,3.019,3.019,0,0,1-1.065-1.252,3.833,3.833,0,0,1-.336-1.626V13.343a3.314,3.314,0,0,1,.318-1.383,3.253,3.253,0,0,1,1.588-1.532,4.958,4.958,0,0,1,2.2-.467A5.755,5.755,0,0,1,489.542,10.446Zm-.691,3.531a1.012,1.012,0,0,0,.168-1.663,2.778,2.778,0,0,0-1.382-.467,5.692,5.692,0,0,0-1.439.112,2.259,2.259,0,0,0-.953.448,1.151,1.151,0,0,0-.43.9v.9h3.12A1.749,1.749,0,0,0,488.851,13.978Z" transform="translate(-332.539 -6.859)" fill="#c0c5d4"/>
  <path id="Path_229" data-name="Path 229" d="M519.617,3.4v.841c0,.691-.336,1.046-.99,1.046h-1.233V9.847a1.411,1.411,0,0,0,.448,1.121,1.3,1.3,0,0,0,.878.318v.859a.713.713,0,0,1-.56.785,1.284,1.284,0,0,1-.972-.112,2.723,2.723,0,0,1-1.2-1.046,3.634,3.634,0,0,1-.486-1.925V.99c0-.654.336-.99,1.028-.99h.859V3.4Z" transform="translate(-354.971)" fill="#c0c5d4"/>
  <path id="Path_230" data-name="Path 230" d="M534.793,0h.841V.9c0,.654-.355.99-1.046.99h-.841V.99C533.747.336,534.1,0,534.793,0Zm-1.046,4.391c0-.654.355-.99,1.046-.99h.841v9.492h-.841c-.691,0-1.046-.336-1.046-.99Z" transform="translate(-367.532)" fill="#c0c5d4"/>
  <path id="Path_231" data-name="Path 231" d="M548.532,11.025a4.474,4.474,0,0,1,2.99-1.065,4.522,4.522,0,0,1,3.008,1.065,3.5,3.5,0,0,1,1.327,2.709V19.75h-.841c-.691,0-1.046-.336-1.046-.99V13.734a1.621,1.621,0,0,0-.654-1.271,2.918,2.918,0,0,0-3.587,0,1.62,1.62,0,0,0-.654,1.271V19.75h-.841c-.691,0-1.046-.336-1.046-.99V13.734A3.4,3.4,0,0,1,548.532,11.025Z" transform="translate(-376.787 -6.858)" fill="#c0c5d4"/>
  <path id="Path_232" data-name="Path 232" d="M588.646,11.061a3.545,3.545,0,0,1,1.4,2.84v5.755a3.345,3.345,0,0,1-.355,1.57,3.808,3.808,0,0,1-2.373,1.849,5.827,5.827,0,0,1-1.644.224,7.415,7.415,0,0,1-1.458-.149,1.364,1.364,0,0,1-.878-.486.993.993,0,0,1-.037-.785l.168-.747a4.456,4.456,0,0,0,1.663.318,5.739,5.739,0,0,0,1.663-.187,1.579,1.579,0,0,0,1.364-1.607v-.374a5.048,5.048,0,0,1-5.792-.355,3.51,3.51,0,0,1-1.4-2.821V13.9a3.545,3.545,0,0,1,1.4-2.84,4.766,4.766,0,0,1,3.139-1.1A4.841,4.841,0,0,1,588.646,11.061Zm-3.139.785a2.927,2.927,0,0,0-1.943.673,1.753,1.753,0,0,0-.71,1.383v2.2a1.78,1.78,0,0,0,.71,1.383,3.214,3.214,0,0,0,3.886,0,1.753,1.753,0,0,0,.71-1.383V13.9a1.753,1.753,0,0,0-.71-1.383A2.924,2.924,0,0,0,585.507,11.846Z" transform="translate(-400.047 -6.857)" fill="#c0c5d4"/>
  <g id="Group_197" data-name="Group 197" transform="translate(0 3.982)">
    <path id="Path_233" data-name="Path 233" d="M3.7,15.774c.012-.814-.061-1.615-1-1.615-.571,0-.935.231-.935.85,0,.692.437.959.972,1.3A15.668,15.668,0,0,1,4.809,17.8a2.378,2.378,0,0,1,.765,1.907,2.5,2.5,0,0,1-2.806,2.623A2.454,2.454,0,0,1,0,19.563v-.668H1.7v.534c-.036.887.231,1.53,1.069,1.53a.943.943,0,0,0,1.057-1.069,1.379,1.379,0,0,0-.68-1.2,13.322,13.322,0,0,1-2.684-2.1,2.53,2.53,0,0,1-.437-1.4c0-1.555.874-2.4,2.672-2.4,2.708,0,2.635,2.089,2.648,2.988Z" transform="translate(0 -12.786)" fill="#c0c5d4"/>
    <path id="Path_234" data-name="Path 234" d="M24.023,22.6V13.488h1.7V22.6Z" transform="translate(-16.542 -13.269)" fill="#c0c5d4"/>
    <path id="Path_235" data-name="Path 235" d="M34.4,13.488h5.672v1.336h-1.98V22.6h-1.7V14.824H34.4V13.488Z" transform="translate(-23.685 -13.269)" fill="#c0c5d4"/>
    <path id="Path_236" data-name="Path 236" d="M57.29,22.6V13.488h4.785v1.336H58.991v2.3h2.842v1.336H58.991v2.806h3.085V22.6Z" transform="translate(-39.449 -13.269)" fill="#c0c5d4"/>
    <path id="Path_237" data-name="Path 237" d="M89.7,22.6V13.488h2.745a2.218,2.218,0,0,1,1.931.668,2.444,2.444,0,0,1,.449,1.64A1.763,1.763,0,0,1,93.731,17.7v.024c.959.134,1.324.935,1.324,2.113a4.32,4.32,0,0,1-.121,1.117A2.055,2.055,0,0,1,92.7,22.6h-3Zm2.016-5.429c.413,0,.947.024,1.215-.316a1.738,1.738,0,0,0,.182-.984c0-.68-.146-1.02-.923-1.044H91.4v2.344Zm.049,4.093a2.568,2.568,0,0,0,1.02-.1c.462-.206.522-.8.522-1.263,0-.984-.194-1.4-1.251-1.4H91.4v2.757h.364Z" transform="translate(-61.766 -13.269)" fill="#c0c5d4"/>
    <path id="Path_238" data-name="Path 238" d="M113.694,15.881a6.135,6.135,0,0,1,.4,1.4h.024a7.776,7.776,0,0,1,.559-1.725l.814-2.065h1.858l-2.4,5.235V22.6h-1.7V18.723l-2.368-5.235h1.858Z" transform="translate(-76.348 -13.269)" fill="#c0c5d4"/>
  </g>
</svg>
