<svg id="Layer_1" data-name="Layer 1" xmlns="http://www.w3.org/2000/svg" viewBox="0 0 394.25 57.82">
  <defs>
    <style>
      .cls-1 {
        fill: none;
      }

      .cls-2 {
        fill: #ff0300;
      }

      .cls-3 {
        fill: #030001;
      }
    </style>
  </defs>
  <path class="cls-1" d="M0,0V57.82H394.25V0ZM368.54,1.05H372V15.44h17V1.05h3.46V33H389V18.7H372V33h-3.45ZM341,4.74Q344.7.62,352.08.62A22,22,0,0,1,361.82,3V6.28a19.59,19.59,0,0,0-9.35-2.4q-6,0-8.83,3.16t-2.78,10q0,6.86,2.76,10t8.85,3.14a19.07,19.07,0,0,0,9.35-2.35v3.31a22.66,22.66,0,0,1-9.74,2.3q-7.38,0-11.1-4.13T337.27,17Q337.27,8.86,341,4.74ZM311.12,27.05a14.17,14.17,0,0,0,4.35,2.37,17.19,17.19,0,0,0,5.82.94,7.88,7.88,0,0,0,5.23-1.49,5,5,0,0,0,1.73-4,4.66,4.66,0,0,0-1-3.09,7.11,7.11,0,0,0-2.4-1.92c-.93-.47-2.32-1-4.17-1.75a36.59,36.59,0,0,1-4.73-1.92,8.42,8.42,0,0,1-3-2.69,8,8,0,0,1-1.24-4.7,8.06,8.06,0,0,1,1-3.84,7.78,7.78,0,0,1,3.17-3.11A11.23,11.23,0,0,1,321.48.57a14.51,14.51,0,0,1,4.15.48,29.77,29.77,0,0,1,4.25,1.77V6.37l-1.8-1a11.53,11.53,0,0,0-3-1.22,14.2,14.2,0,0,0-3.38-.39,7.37,7.37,0,0,0-4.89,1.37,4.33,4.33,0,0,0-1.58,3.43,5,5,0,0,0,.84,3,6.08,6.08,0,0,0,2.25,1.87,32.15,32.15,0,0,0,4,1.59,35.53,35.53,0,0,1,4.87,2,9.32,9.32,0,0,1,3.24,2.81,7.61,7.61,0,0,1,1.34,4.65,9,9,0,0,1-2.52,6.43q-2.52,2.63-8.08,2.63a17.76,17.76,0,0,1-5.28-.62,29.62,29.62,0,0,1-4.75-2.11ZM281,1.05h26.05V4.31H295.78V33h-3.46V4.31H281ZM99.35,1h3.46V29.68H119.2V33H99.35ZM67.29,1h10q7.5,0,11.27,4t3.77,12q0,16.05-15,16.05h-10ZM39.37,1H59.6V4.25H42.83V15.31H57.58v3.36H42.83v11.1H59.6V33H39.37ZM27.74,1H31.2V33H27.74ZM1.84,1H21.49V4.25H5.29V15.31H19.52v3.36H5.29V33H1.83Zm119.5,50.6H1.33a.7.7,0,0,1,0-1.39h120a.69.69,0,1,1,0,1.38ZM143,57.07,141.47,53h-5.62l-1.56,4.06h-1.53l5.2-13h1.4l5.18,13Zm1.69-52.82H127.94V15.31H142.7v3.36H127.94v11.1h16.78V33H124.48V1h20.24Zm12.76,41.13h-4.59V57.07h-1.4V45.38h-4.61V44.05h10.6Zm14.12,0H167V57.07h-1.4V45.38H161V44.05h10.6ZM164,20.11h-8.17V33h-3.46V1h13.17c3.1,0,5.46.78,7.06,2.35s2.4,3.89,2.4,7a9.89,9.89,0,0,1-2,6.25,8.42,8.42,0,0,1-5.29,3.17L176.48,33H172.4Zm21.78,35.47a6.52,6.52,0,0,1-8.75,0,7.45,7.45,0,0,1-1.47-5,7.45,7.45,0,0,1,1.47-5,6.52,6.52,0,0,1,8.75,0,7.46,7.46,0,0,1,1.48,5A7.41,7.41,0,0,1,185.82,55.58Zm5.24-54.53h10q7.49,0,11.25,4t3.76,12q0,16-15,16h-10Zm9.92,56-3.4-5.25h-3.32v5.25h-1.4v-13h5.35a3.92,3.92,0,0,1,2.87,1,3.77,3.77,0,0,1,1,2.83,4,4,0,0,1-.8,2.54,3.39,3.39,0,0,1-2.14,1.28l3.53,5.41Zm17.71,0h-1.58l-7.79-11v11h-1.4v-13h1.6l7.77,11v-11h1.4Zm4.37-56h20.19V4.31H226.51v11h14.73V18.7H226.51V29.78h16.74V33H223.06ZM233,45.38h-6.81v4.49h6v1.36h-6v4.52H233v1.32h-8.22v-13H233Zm10.7,5.72v6h-1.4v-6l-4.86-7.05h1.7l3.85,5.7,3.86-5.7h1.7Zm16.55,5.1a4.38,4.38,0,0,1-3.29,1.07,7.44,7.44,0,0,1-2.15-.25,12.77,12.77,0,0,1-1.93-.86V54.63a6,6,0,0,0,1.77,1A7,7,0,0,0,257,56a3.19,3.19,0,0,0,2.13-.6,2.06,2.06,0,0,0,.7-1.64,1.91,1.91,0,0,0-.41-1.26,3,3,0,0,0-1-.78,16.4,16.4,0,0,0-1.7-.71,14.61,14.61,0,0,1-1.92-.79,3.46,3.46,0,0,1-1.22-1.09,3.56,3.56,0,0,1-.11-3.48,3.22,3.22,0,0,1,1.29-1.27,4.68,4.68,0,0,1,2.29-.51,6,6,0,0,1,1.69.2,11.91,11.91,0,0,1,1.73.72v1.45l-.73-.42a4.68,4.68,0,0,0-1.23-.5,5.79,5.79,0,0,0-1.38-.16,3,3,0,0,0-2,.56,1.75,1.75,0,0,0-.64,1.4,2.09,2.09,0,0,0,.34,1.23,2.52,2.52,0,0,0,.92.76,11.49,11.49,0,0,0,1.63.64,14.18,14.18,0,0,1,2,.81,3.94,3.94,0,0,1,1.32,1.15,3.09,3.09,0,0,1,.54,1.89,3.63,3.63,0,0,1-1,2.61Zm-6-26.18q-3.28-3.49-3.28-10V1.05h3.45V20.19q0,10.06,9.07,10.07t9.16-10.07V1.05H276V20q0,6.53-3.29,10t-9.23,3.5q-6,0-9.24-3.51ZM392.69,51.59h-120a.7.7,0,0,1,0-1.39h120a.69.69,0,1,1,0,1.38Z"/>
  <path class="cls-2" d="M167.79,19.73a8.37,8.37,0,0,0,5.28-3.17,9.85,9.85,0,0,0,2-6.25q0-4.62-2.4-7T165.58,1H152.41V33h3.46V20.11H164L172.4,33h4.09ZM164,16.84h-8.13V4.25h9.33q3.51,0,4.95,1.61a6.83,6.83,0,0,1,1.44,4.69,5.89,5.89,0,0,1-1.83,4.71q-1.81,1.59-5.76,1.58Z"/>
  <path class="cls-2" d="M124.48,33h20.24V29.77H127.94V18.67H142.7V15.31H127.94V4.25h16.78V1H124.48Z"/>
  <path class="cls-2" d="M119.2,29.68H102.81V1H99.35V33H119.2Z"/>
  <path class="cls-2" d="M92.38,17q0-8-3.77-12T77.34,1h-10V33h10Q92.37,33,92.38,17ZM70.75,29.77V4.2H77.1q6.11,0,8.91,3.08T88.83,17q0,6.63-2.82,9.7T77.1,29.77Z"/>
  <path class="cls-2" d="M59.6,29.77H42.83V18.67H57.58V15.31H42.83V4.25H59.6V1H39.37V33H59.6Z"/>
  <rect class="cls-2" x="27.74" y="0.99" width="3.46" height="32.06"/>
  <path class="cls-2" d="M5.29,18.67H19.52V15.31H5.29V4.25h16.2V1H1.83V33H5.29Z"/>
  <g class="color-change">
    <path class="cls-3" d="M372,18.7h17V33h3.45v-32H389V15.44H372V1.05h-3.45V33H372Z"/>
    <path class="cls-3" d="M352.09,33.43a22.84,22.84,0,0,0,9.74-2.3V27.82a19.13,19.13,0,0,1-9.36,2.35q-6.09,0-8.85-3.14t-2.76-10q0-6.83,2.79-10t8.82-3.17a19.74,19.74,0,0,1,9.36,2.4V3A22,22,0,0,0,352.09.62Q344.7.62,341,4.74T337.27,17q0,8.16,3.72,12.28T352.09,33.43Z"/>
    <path class="cls-3" d="M321.15,33.52q5.57,0,8.08-2.64a8.94,8.94,0,0,0,2.52-6.42,7.66,7.66,0,0,0-1.34-4.66,9.39,9.39,0,0,0-3.24-2.8,35.53,35.53,0,0,0-4.87-2,30,30,0,0,1-4-1.58A6.31,6.31,0,0,1,316,11.56a5.08,5.08,0,0,1-.84-3,4.36,4.36,0,0,1,1.59-3.43,7.35,7.35,0,0,1,4.89-1.36,14.25,14.25,0,0,1,3.38.38,11.67,11.67,0,0,1,3,1.22l1.8,1V2.82a29.65,29.65,0,0,0-4.24-1.77,14.55,14.55,0,0,0-4.15-.48,11.26,11.26,0,0,0-5.64,1.25,7.82,7.82,0,0,0-3.16,3.11,8.19,8.19,0,0,0-1,3.84,8,8,0,0,0,1.25,4.7,8.42,8.42,0,0,0,3,2.69,35.89,35.89,0,0,0,4.72,1.92c1.86.7,3.25,1.28,4.18,1.75a7.31,7.31,0,0,1,2.4,1.92,4.65,4.65,0,0,1,1,3.09,5,5,0,0,1-1.72,4,7.89,7.89,0,0,1-5.23,1.49,17.29,17.29,0,0,1-5.83-.94,14.23,14.23,0,0,1-4.34-2.37v3.74a29.62,29.62,0,0,0,4.75,2.11A18.37,18.37,0,0,0,321.15,33.52Z"/>
    <path class="cls-3" d="M292.32,33h3.46V4.31h11.27V1.05H281V4.31h11.32Z"/>
    <path class="cls-3" d="M276,20V1.05h-3.35V20.19q0,10.06-9.16,10.07t-9.07-10.07V1.05h-3.45V20q0,6.53,3.28,10t9.24,3.5q5.94,0,9.23-3.5T276,20Z"/>
    <path class="cls-3" d="M243.25,29.78H226.51V18.7h14.73V15.34H226.51v-11h16.74V1.05H223.06V33h20.19Z"/>
    <path class="cls-3" d="M216.1,17q0-8-3.77-12t-11.24-4h-10V33h10Q216.11,33,216.1,17ZM194.52,29.78V4.26h6.33c4.06,0,7,1,8.9,3.07s2.81,5.28,2.8,9.69-.93,7.64-2.8,9.69-4.84,3.07-8.9,3.07Z"/>
    <path d="M259.37,50.54a14.18,14.18,0,0,0-2-.81,13.44,13.44,0,0,1-1.63-.64,2.53,2.53,0,0,1-.92-.77,2,2,0,0,1-.34-1.23,1.78,1.78,0,0,1,.65-1.4,3,3,0,0,1,2-.55,6.32,6.32,0,0,1,1.37.15,4.89,4.89,0,0,1,1.23.5l.74.42V44.77a12.39,12.39,0,0,0-1.73-.72,6,6,0,0,0-1.69-.2,4.7,4.7,0,0,0-2.3.51,3.13,3.13,0,0,0-1.28,1.27,3.29,3.29,0,0,0-.4,1.56,3.24,3.24,0,0,0,.5,1.92,3.46,3.46,0,0,0,1.22,1.09,13.31,13.31,0,0,0,1.92.78c.76.29,1.32.52,1.7.71a3.1,3.1,0,0,1,1,.78,1.93,1.93,0,0,1,.41,1.26,2,2,0,0,1-.7,1.64A3.19,3.19,0,0,1,257,56a6.81,6.81,0,0,1-2.37-.38,5.75,5.75,0,0,1-1.77-1v1.52a12.45,12.45,0,0,0,1.94.86,7.34,7.34,0,0,0,2.14.25,4.38,4.38,0,0,0,3.29-1.07,3.65,3.65,0,0,0,1-2.62,3.1,3.1,0,0,0-.55-1.89A3.72,3.72,0,0,0,259.37,50.54Z"/>
    <path d="M242.94,49.75l-3.84-5.7h-1.7l4.86,7.05v6h1.4v-6l4.85-7.05h-1.7Z"/>
    <path d="M224.74,57.07H233V55.74h-6.81v-4.5h6V49.87h-6V45.38H233V44.05h-8.22Z"/>
    <path d="M217.29,55l-7.77-11h-1.6v13h1.4v-11l7.79,11h1.58v-13h-1.4Z"/>
    <path d="M201.26,50.38a4.09,4.09,0,0,0,.8-2.54,3.82,3.82,0,0,0-1-2.83,3.91,3.91,0,0,0-2.87-1h-5.35v13h1.41V51.82h3.32l3.4,5.25h1.66l-3.54-5.41A3.44,3.44,0,0,0,201.26,50.38Zm-3.69.11h-3.3V45.38h3.78a2.61,2.61,0,0,1,2,.65,2.77,2.77,0,0,1,.58,1.9,2.39,2.39,0,0,1-.74,1.91A3.5,3.5,0,0,1,197.57,50.49Z"/>
    <path d="M181.44,43.87a5.55,5.55,0,0,0-4.37,1.69,7.45,7.45,0,0,0-1.47,5,7.45,7.45,0,0,0,1.47,5,6.52,6.52,0,0,0,8.75,0,7.46,7.46,0,0,0,1.48-5,7.45,7.45,0,0,0-1.47-5A5.52,5.52,0,0,0,181.44,43.87Zm3.36,10.78a5,5,0,0,1-6.7,0,6.4,6.4,0,0,1-1-4.08,6.37,6.37,0,0,1,1-4.07,5,5,0,0,1,6.7,0,6.37,6.37,0,0,1,1,4.07A6.4,6.4,0,0,1,184.8,54.65Z"/>
    <path d="M161,45.38h4.6v11.7H167V45.38h4.59V44.05H161Z"/>
    <path d="M146.88,45.38h4.61v11.7h1.4V45.38h4.59V44.05h-10.6Z"/>
    <path d="M138,44.05l-5.2,13h1.53L135.85,53h5.62L143,57.07h1.5l-5.17-13Zm-1.58,7.61,2.28-5.95,2.28,5.95Z"/>
    <path d="M392.69,50.21h-120a.7.7,0,0,0,0,1.39h120a.69.69,0,1,0,0-1.38Z"/>
    <path d="M121.34,50.21H1.33a.7.7,0,0,0,0,1.39h120a.69.69,0,1,0,0-1.38Z"/>
  </g>
</svg>
