<svg xmlns="http://www.w3.org/2000/svg" width="21.584" height="21.585" viewBox="0 0 21.584 21.585">
  <path id="Path_207" data-name="Path 207" d="M419.083,92.812A10.792,10.792,0,1,0,429.875,103.6,10.8,10.8,0,0,0,419.083,92.812Zm0,2.888c4.033,0,7.6,3.022,7.454,4.988-.142,1.911-3.8-.961-7.454-.961s-7.313,2.872-7.455.961C411.481,98.722,415.048,95.7,419.081,95.7Zm-1.66,15.439c-.571.562-2.35.042-3.974-1.606s-2.478-3.441-1.907-4,2.415.24,4.039,1.888S417.991,110.577,417.421,111.139Zm1.662-6.31c-1.1,0-2-.549-2-1.225s.895-1.225,2-1.225,2,.548,2,1.225S420.187,104.829,419.083,104.829Zm5.639,4.7c-1.624,1.648-3.4,2.168-3.974,1.606s.218-2.072,1.842-3.721,3.468-2.45,4.039-1.888S426.346,107.884,424.722,109.533Z" transform="translate(-408.291 -92.812)" fill="#0b1822"/>
</svg>
