<?xml version="1.0" encoding="utf-8"?>
<!-- Generator: Adobe Illustrator 25.0.0, SVG Export Plug-In . SVG Version: 6.00 Build 0)  -->
<svg version="1.1" id="Layer_1" xmlns="http://www.w3.org/2000/svg" xmlns:xlink="http://www.w3.org/1999/xlink" x="0px" y="0px"
	 width="35px" height="35px" viewBox="0 0 35 35" style="enable-background:new 0 0 35 35;" xml:space="preserve">
<path style="fill:#0F1F2D;" d="M33.87,17.92c-0.83-2.08-7.68-2.41-7.68-2.41s-1.58-1.64-3.8-2.86c-2.87-1.57-4.9-1.74-7.44-1.69
	c-7.38,0.13-10.17,4.17-10.17,4.17S2.54,15.18,2,15.76c-0.88,0.94-1.76,2.49-0.81,4.72c0.3,0.71,1.22,1.14,2.32,1.41
	c0.42,1.26,1.61,2.17,3.01,2.17c1.27,0,2.36-0.74,2.86-1.82c1.51,0,12.57,0,15.29,0c0.13,0,0.26,0,0.4,0
	c0.51,1.07,1.6,1.82,2.86,1.82c1.27,0,2.36-0.74,2.86-1.82c0.24,0,0.39,0,0.39,0s2.11,0.06,2.68-0.64
	C34.65,20.64,33.87,17.92,33.87,17.92z M6.53,21.97c-0.6,0-1.09-0.49-1.09-1.09c0-0.6,0.49-1.09,1.09-1.09
	c0.6,0,1.09,0.49,1.09,1.09C7.61,21.48,7.13,21.97,6.53,21.97z M14.67,15.12c0,0-2.21,0-4.29,0c-0.96,0-1.8,0-1.8,0
	c1.12-2.28,6.09-2.29,6.09-2.29V15.12z M15.98,15.12v-2.29c0,0,0.94-0.08,2.41,0.2c3.18,0.6,3.77,2.09,3.77,2.09H15.98z
	 M27.94,21.97c-0.6,0-1.09-0.49-1.09-1.09c0-0.6,0.49-1.09,1.09-1.09c0.6,0,1.09,0.49,1.09,1.09
	C29.03,21.48,28.54,21.97,27.94,21.97z"/>
</svg>
