<?xml version="1.0" encoding="utf-8"?>
<!-- Generator: Adobe Illustrator 25.0.0, SVG Export Plug-In . SVG Version: 6.00 Build 0)  -->
<svg version="1.1" id="Layer_1" xmlns="http://www.w3.org/2000/svg" xmlns:xlink="http://www.w3.org/1999/xlink" x="0px" y="0px"
	 width="35px" height="35px" viewBox="0 0 35 35" style="enable-background:new 0 0 35 35;" xml:space="preserve">
<path style="fill:#0F1F2D;" d="M17.5,6.71c-5.95,0-10.79,4.84-10.79,10.79c0,5.95,4.84,10.79,10.79,10.79s10.79-4.84,10.79-10.79
	C28.29,11.55,23.45,6.71,17.5,6.71z M17.5,9.6c4.03,0,7.6,3.02,7.45,4.99c-0.14,1.91-3.8-0.96-7.45-0.96s-7.31,2.87-7.45,0.96
	C9.9,12.62,13.46,9.6,17.5,9.6z M15.84,25.03c-0.57,0.56-2.35,0.04-3.97-1.61c-1.62-1.65-2.48-3.44-1.91-4
	c0.57-0.56,2.41,0.24,4.04,1.89C15.62,22.96,16.41,24.47,15.84,25.03z M17.5,18.72c-1.1,0-2-0.55-2-1.22c0-0.68,0.89-1.22,2-1.22
	c1.1,0,2,0.55,2,1.22C19.5,18.18,18.6,18.72,17.5,18.72z M23.14,23.43c-1.62,1.65-3.4,2.17-3.97,1.61
	c-0.57-0.56,0.22-2.07,1.84-3.72c1.62-1.65,3.47-2.45,4.04-1.89C25.62,19.99,24.76,21.78,23.14,23.43z"/>
</svg>
