<?xml version="1.0" encoding="utf-8"?>
<!-- Generator: Adobe Illustrator 25.0.0, SVG Export Plug-In . SVG Version: 6.00 Build 0)  -->
<svg version="1.1" id="Layer_1" xmlns="http://www.w3.org/2000/svg" xmlns:xlink="http://www.w3.org/1999/xlink" x="0px" y="0px"
	 width="35px" height="35px" viewBox="0 0 35 35" style="enable-background:new 0 0 35 35;" xml:space="preserve">
<path style="fill:#0F1F2D;" d="M9.73,8.29C9.59,8.14,9.64,8.01,9.85,8l2.97-0.13c0.21-0.01,0.52,0.08,0.69,0.2l6.46,4.41
	c-1.9,0.13-3.92,0.27-5.81,0.39L9.73,8.29z M33.02,14.58c-1.58-1.18-3.96-1.45-5.26-1.38c-2.89,0.17-21.6,1.58-21.6,1.58
	c-0.21,0.02-0.48-0.11-0.61-0.27L3.7,12.08c-0.13-0.17-0.4-0.3-0.61-0.3l-2.61,0.04c-0.21,0-0.31,0.16-0.23,0.35L2.9,18.2
	c0.08,0.19,0.32,0.35,0.53,0.34l10.81-0.1l-4.97,8.37c-0.11,0.18-0.02,0.31,0.18,0.3l3.23-0.21c0.21-0.01,0.5-0.14,0.66-0.28
	l8.95-8.25l12.07-0.11c0.21,0,0.39-0.17,0.41-0.38C34.77,17.88,34.94,16.01,33.02,14.58z"/>
</svg>
