<svg xmlns="http://www.w3.org/2000/svg" width="34.548" height="19.247" viewBox="0 0 34.548 19.247">
  <path id="Path_203" data-name="Path 203" d="M563.995,78.483c-.144-.15-.092-.28.116-.289l2.967-.126a1.336,1.336,0,0,1,.693.2l6.461,4.412-5.811.393Zm23.287,6.287a8.8,8.8,0,0,0-5.265-1.375c-2.891.17-21.6,1.582-21.6,1.582a.785.785,0,0,1-.608-.274l-1.846-2.428a.848.848,0,0,0-.608-.3l-2.607.035a.234.234,0,0,0-.227.353l2.647,6.028a.624.624,0,0,0,.532.343l10.806-.1-4.972,8.375c-.107.179-.024.315.184.3l3.232-.215a1.257,1.257,0,0,0,.657-.282l8.948-8.254,12.067-.112a.43.43,0,0,0,.414-.381A3.944,3.944,0,0,0,587.282,84.77Z" transform="translate(-554.488 -78.067)" fill="#bf7b30"/>
</svg>
