<?xml version="1.0" encoding="utf-8"?>
<!-- Generator: Adobe Illustrator 25.0.0, SVG Export Plug-In . SVG Version: 6.00 Build 0)  -->
<svg version="1.1" id="Layer_1" xmlns="http://www.w3.org/2000/svg" xmlns:xlink="http://www.w3.org/1999/xlink" x="0px" y="0px"
	 width="35px" height="35px" viewBox="0 0 35 35" style="enable-background:new 0 0 35 35;" xml:space="preserve">
<path style="fill:#0F1F2D;" d="M25.07,23.85c-1.11,3.44-4,5.15-6.01,5.34c-0.29,0.06-0.57-0.09-0.87-0.34
	c0.21-0.14,0.41-0.29,0.6-0.44c4.15-3.29,1.34-9.56,1.34-9.56s-1.63,1.41-2.18,1.04c-1.33-0.91-0.93-4.47-0.93-4.47
	c-5.91,8.87-1.46,12.44,0.21,13.4c-0.2,0.19-0.44,0.32-0.74,0.32c0,0-1.49,0.18-3.09-0.91c-3.26-2.35-6.38-6.97-1.69-13.25
	c3.57-4.79,2.55-7.64,2.18-9.16c0,0,4.94,1.8,8.3,6.39c0.97-1.16,1.16-1.73,1.35-1.4C23.54,10.78,27.06,17.67,25.07,23.85z"/>
</svg>
