<svg xmlns="http://www.w3.org/2000/svg" width="31" height="16.695" viewBox="0 0 31 16.695">
  <path id="Path_206" data-name="Path 206" d="M477.626,93.042c-.258-.627-.564-.744-1-.744H449.135a.8.8,0,0,0-.8.8v12.458c0,.439.227.8.505.8s.5,0,.5.012.28.011.621.011h2.106a2.773,2.773,0,0,0,5.538,0h11.375a2.773,2.773,0,0,0,5.538,0h4.017a.8.8,0,0,0,.8-.8V97.032Zm-22.715,14.074a.959.959,0,1,1,.959-.959A.959.959,0,0,1,454.911,107.116Zm1.374-7.947h-5.12V95.111h5.12Zm6.946,0h-5.12V95.111h5.12Zm6.947,0h-5.12V95.111h5.12Zm1.644,7.947a.959.959,0,1,1,.96-.959A.96.96,0,0,1,471.822,107.116Zm4.694-4.47h-4.34V95.111h3.51l.83,2.029Z" transform="translate(-448.339 -92.298)" fill="#0b1822" fill-rule="evenodd"/>
</svg>
