<?xml version="1.0" encoding="utf-8"?>
<!-- Generator: Adobe Illustrator 25.0.0, SVG Export Plug-In . SVG Version: 6.00 Build 0)  -->
<svg version="1.1" id="Layer_1" xmlns="http://www.w3.org/2000/svg" xmlns:xlink="http://www.w3.org/1999/xlink" x="0px" y="0px"
	 width="35px" height="35px" viewBox="0 0 35 35" style="enable-background:new 0 0 35 35;" xml:space="preserve">
<path style="fill:#0F1F2D;" d="M27.26,20.75c0.32,0.75-0.75,1.82-2.57,2.89c-0.62,0.36-1.26,0.67-1.86,0.86c0,0,0,0,0,0
	c-2.08,0.65-2.16,1.86-2.16,1.86c-0.12,1.03,0.19,1.6,0.19,1.6h-1.77c0.04-0.21,0.25-0.91-0.07-1.98c-0.32-1.07-1.25-2.33-1.93-2.92
	c-0.63-0.55-0.19-1.05,0.13-1.33c2.74-1.99,4.58-2.08,4.58-2.08c0,0,0,0,0,0c0.45-0.06,1.05-0.09,1.9-0.1
	C24.97,19.55,26.94,20,27.26,20.75z M16.83,7.05C10.56,7.33,5.53,9.56,5.55,14.27c0.01,2.75,2.71,3.52,4.06,3.73
	c0.05-0.19,0.13-0.38,0.24-0.56c0.47-0.8,1.08-1.49,1.83-2.07c-0.32-0.27-0.83-0.56-1.58-0.56c-0.33,0-0.59-0.27-0.59-0.59
	c0-0.33,0.26-0.58,0.59-0.59c1.3,0.01,2.14,0.62,2.58,1.07c1.21-0.69,2.7-1.18,4.49-1.48c3.45-0.57,8.55,0.64,8.76,0.69
	c0.32,0.08,0.51,0.39,0.44,0.71c-0.08,0.32-0.39,0.51-0.71,0.44c-0.05-0.01-5.08-1.2-8.29-0.67c-3.24,0.54-5.37,1.74-6.5,3.66
	c-0.25,0.43-0.2,0.94-0.07,1.38c1.21,2.26,4.31,2.38,5.98,1.34c2.07-1.28,3.46-2.17,6.31-2.24c2.52-0.05,5.7,1.8,6.3-2.14
	C30.11,11.56,24.68,6.69,16.83,7.05z"/>
</svg>
