<?xml version="1.0" encoding="utf-8"?>
<!-- Generator: Adobe Illustrator 25.0.0, SVG Export Plug-In . SVG Version: 6.00 Build 0)  -->
<svg version="1.1" id="Layer_1" xmlns="http://www.w3.org/2000/svg" xmlns:xlink="http://www.w3.org/1999/xlink" x="0px" y="0px"
	 width="35px" height="35px" viewBox="0 0 35 35" style="enable-background:new 0 0 35 35;" xml:space="preserve">
<path style="fill-rule:evenodd;clip-rule:evenodd;fill:#0F1F2D;" d="M31.29,9.9c-0.26-0.63-0.56-0.74-1-0.74H2.8
	C2.36,9.15,2,9.51,2,9.95v12.46c0,0.44,0.23,0.8,0.51,0.8c0.28,0,0.5,0.01,0.5,0.01c0,0.01,0.28,0.01,0.62,0.01
	c0.34,0,0.98,0,1.42,0H5.5h0.23c0.08,1.46,1.29,2.62,2.77,2.62c1.48,0,2.69-1.16,2.77-2.62h4.08h7.29c0.08,1.46,1.29,2.62,2.77,2.62
	c1.48,0,2.69-1.16,2.77-2.62h4.02c0.44,0,0.8-0.36,0.8-0.8v-8.54L31.29,9.9z M8.57,23.97c-0.53,0-0.96-0.43-0.96-0.96
	c0-0.53,0.43-0.96,0.96-0.96c0.53,0,0.96,0.43,0.96,0.96C9.53,23.54,9.1,23.97,8.57,23.97z M9.95,16.02H4.83v-4.06h5.12V16.02z
	 M16.89,16.02h-5.12v-4.06h5.12V16.02z M23.84,16.02h-5.12v-4.06h5.12V16.02z M25.48,23.97c-0.53,0-0.96-0.43-0.96-0.96
	c0-0.53,0.43-0.96,0.96-0.96c0.53,0,0.96,0.43,0.96,0.96C26.44,23.54,26.01,23.97,25.48,23.97z M30.18,19.5h-4.34v-7.53h3.51
	l0.83,2.03V19.5z"/>
</svg>
