<svg xmlns="http://www.w3.org/2000/svg" width="16.353" height="23.396" viewBox="0 0 16.353 23.396">
  <path id="Path_213" data-name="Path 213" d="M384.116,76.534a7.557,7.557,0,0,1-6.005,5.337,1.067,1.067,0,0,1-.867-.336c.213-.14.415-.287.6-.436,4.154-3.289,1.337-9.559,1.337-9.559s-1.632,1.41-2.177,1.035c-1.326-.912-.93-4.471-.93-4.471-5.9,8.875-1.46,12.444.2,13.4a1.044,1.044,0,0,1-.742.318,4.905,4.905,0,0,1-3.094-.914c-3.256-2.347-6.377-6.972-1.688-13.254,3.573-4.788,2.547-7.644,2.183-9.163a19.888,19.888,0,0,1,8.3,6.385c.968-1.163,1.159-1.73,1.351-1.4C382.588,63.467,386.106,70.357,384.116,76.534Z" transform="translate(-368.373 -58.486)" fill="#0b1822"/>
</svg>
