<svg xmlns="http://www.w3.org/2000/svg" width="23.899" height="20.945" viewBox="0 0 23.899 20.945">
  <path id="Path_212" data-name="Path 212" d="M460.319,38.727c.321.749-.749,1.819-2.569,2.89a9.354,9.354,0,0,1-1.857.863l-.005,0c-2.079.649-2.162,1.864-2.162,1.864a2.924,2.924,0,0,0,.189,1.6h-1.769a3.579,3.579,0,0,0-.069-1.98,7.353,7.353,0,0,0-1.934-2.924c-.629-.547-.193-1.046.13-1.334a9.558,9.558,0,0,1,4.576-2.081v0a15.629,15.629,0,0,1,1.9-.1C458.033,37.526,460,37.977,460.319,38.727ZM449.9,25.026c-6.275.286-11.308,2.512-11.284,7.219.014,2.75,2.712,3.516,4.059,3.727a2.433,2.433,0,0,1,.237-.563,7.3,7.3,0,0,1,1.828-2.071,2.43,2.43,0,0,0-1.582-.564.591.591,0,1,1,.007-1.181,3.6,3.6,0,0,1,2.583,1.069,13.455,13.455,0,0,1,4.486-1.479c3.447-.574,8.548.635,8.764.687a.59.59,0,1,1-.276,1.148c-.05-.012-5.085-1.2-8.294-.67-3.242.539-5.368,1.736-6.5,3.659a1.722,1.722,0,0,0-.066,1.383c1.208,2.258,4.305,2.378,5.979,1.337,2.066-1.285,3.463-2.175,6.307-2.235,2.521-.054,5.7,1.795,6.3-2.136C463.175,29.539,457.739,24.667,449.9,25.026Z" transform="translate(-438.612 -25.007)" fill="#0b1822"/>
</svg>
