<?xml version="1.0" encoding="utf-8"?>
<!-- Generator: Adobe Illustrator 25.0.0, SVG Export Plug-In . SVG Version: 6.00 Build 0)  -->
<svg version="1.1" id="Layer_1" xmlns="http://www.w3.org/2000/svg" xmlns:xlink="http://www.w3.org/1999/xlink" x="0px" y="0px"
	 width="35px" height="35px" viewBox="0 0 35 35" style="enable-background:new 0 0 35 35;" xml:space="preserve">
<path style="fill:#0F1F2D;" d="M21.28,25.61l1.4,2.09c-1.72,1.86-4.17,3.04-6.9,3.04c-5.18,0-9.39-4.21-9.39-9.39
	c0-3.81,2.29-7.09,5.56-8.56v2.75c-1.89,1.25-3.13,3.38-3.13,5.81c0,3.84,3.12,6.96,6.96,6.96C18.02,28.32,20,27.25,21.28,25.61z
	 M15.38,9.01c1.31,0,2.37-1.06,2.37-2.37c0-1.31-1.06-2.37-2.37-2.37c-1.31,0-2.37,1.06-2.37,2.37C13.01,7.94,14.07,9.01,15.38,9.01
	z M28.29,25.15l-3.12-4.99c-0.38-0.6-1.04-0.97-1.75-0.97h-5.99v-1.34h4.55c0.93,0,1.69-0.75,1.69-1.69c0-0.93-0.76-1.69-1.69-1.69
	h-4.55v-2.22c0-1.14-0.92-2.06-2.06-2.06c-1.14,0-2.06,0.92-2.06,2.06v8.99c0,1.14,0.92,2.06,2.06,2.06h6.9l2.51,4.02
	c0.39,0.63,1.06,0.97,1.75,0.97c0.37,0,0.75-0.1,1.09-0.31C28.6,27.39,28.9,26.12,28.29,25.15z"/>
</svg>
