<svg xmlns="http://www.w3.org/2000/svg" width="22.213" height="26.483" viewBox="0 0 22.213 26.483">
  <path id="Path_214" data-name="Path 214" d="M374.32,116.833l1.4,2.091a9.377,9.377,0,1,1-10.727-14.907v2.753a6.957,6.957,0,1,0,9.33,10.063Zm-5.9-16.6a2.374,2.374,0,1,0-2.375-2.374A2.374,2.374,0,0,0,368.42,100.229Zm12.913,16.147-3.119-4.987a2.063,2.063,0,0,0-1.748-.968h-5.985v-1.338h4.547a1.686,1.686,0,1,0,0-3.372h-4.547v-2.222a2.061,2.061,0,1,0-4.123,0v8.993a2.062,2.062,0,0,0,2.062,2.062h6.9l2.513,4.018a2.062,2.062,0,1,0,3.5-2.186Z" transform="translate(-359.434 -95.481)" fill="#0b1822"/>
</svg>
