<svg xmlns="http://www.w3.org/2000/svg" width="22.137" height="21.913" viewBox="0 0 22.137 21.913">
  <path id="Path_211" data-name="Path 211" d="M470.216,132.787a.978.978,0,1,1-.977-.978A.978.978,0,0,1,470.216,132.787Zm2.609,0a3.584,3.584,0,0,1-2.763,3.487c-.474,2.472-1.921,5.324-6.38,5.324a6.282,6.282,0,0,1-4.915-1.964,6.643,6.643,0,0,1-1.429-2.758,2.254,2.254,0,0,1-1.018-.869,2.689,2.689,0,0,1-.311-2.176c-4.358-1.63-5.321-8.219-5.321-10.163,0-1.275,1.26-2.1,2.286-2.56a1.933,1.933,0,1,1,.5,1.9,2,2,0,0,0-.871.677c0,.071.413,8.6,5.511,8.6s5.51-8.53,5.51-8.616a2.042,2.042,0,0,0-.869-.663,1.946,1.946,0,1,1,.5-1.9c1.026.46,2.287,1.285,2.287,2.56,0,1.944-.963,8.533-5.321,10.163a2.689,2.689,0,0,1-.311,2.176,2.246,2.246,0,0,1-.456.519,4.431,4.431,0,0,0,.913,1.7,4.208,4.208,0,0,0,3.322,1.246c2.8,0,3.862-1.469,4.256-3.342a3.585,3.585,0,1,1,4.887-3.339Zm-1.689,0a1.9,1.9,0,1,0-1.9,1.9A1.9,1.9,0,0,0,471.136,132.787Z" transform="translate(-450.688 -119.685)" fill="#0b1822"/>
</svg>
