<?xml version="1.0" encoding="utf-8"?>
<!-- Generator: Adobe Illustrator 25.0.0, SVG Export Plug-In . SVG Version: 6.00 Build 0)  -->
<svg version="1.1" id="Layer_1" xmlns="http://www.w3.org/2000/svg" xmlns:xlink="http://www.w3.org/1999/xlink" x="0px" y="0px"
	 width="35px" height="35px" viewBox="0 0 35 35" style="enable-background:new 0 0 35 35;" xml:space="preserve">
<path style="fill:#0F1F2D;" d="M25.96,19.65c0,0.54-0.44,0.98-0.98,0.98c-0.54,0-0.98-0.44-0.98-0.98c0-0.54,0.44-0.98,0.98-0.98
	C25.52,18.67,25.96,19.11,25.96,19.65z M28.57,19.65c0,1.7-1.18,3.12-2.76,3.49c-0.47,2.47-1.92,5.32-6.38,5.32
	c-2.1,0-3.75-0.66-4.92-1.96c-0.75-0.84-1.18-1.83-1.43-2.76c-0.39-0.17-0.76-0.46-1.02-0.87c-0.4-0.64-0.53-1.47-0.31-2.18
	c-4.36-1.63-5.32-8.22-5.32-10.16c0-1.28,1.26-2.1,2.29-2.56c0.23-0.82,0.97-1.42,1.86-1.42c1.07,0,1.94,0.87,1.94,1.94
	c0,1.07-0.87,1.94-1.94,1.94c-0.53,0-1.01-0.22-1.37-0.56c-0.48,0.25-0.83,0.52-0.87,0.68c0,0.07,0.41,8.6,5.51,8.6
	s5.51-8.53,5.51-8.62c-0.04-0.15-0.39-0.41-0.87-0.66c-0.35,0.35-0.83,0.56-1.37,0.56c-1.07,0-1.94-0.87-1.94-1.94
	c0-1.07,0.87-1.94,1.94-1.94c0.89,0,1.63,0.6,1.86,1.42c1.03,0.46,2.29,1.29,2.29,2.56c0,1.94-0.96,8.53-5.32,10.16
	c0.22,0.7,0.09,1.54-0.31,2.18c-0.13,0.2-0.29,0.37-0.46,0.52c0.18,0.6,0.46,1.2,0.91,1.7c0.76,0.84,1.84,1.25,3.32,1.25
	c2.8,0,3.86-1.47,4.26-3.34c-1.34-0.52-2.29-1.82-2.29-3.34c0-1.98,1.61-3.59,3.59-3.59C26.96,16.06,28.57,17.66,28.57,19.65z
	 M26.88,19.65c0-1.05-0.85-1.9-1.9-1.9c-1.05,0-1.9,0.85-1.9,1.9c0,1.05,0.85,1.9,1.9,1.9C26.03,21.54,26.88,20.69,26.88,19.65z"/>
</svg>
