<svg xmlns="http://www.w3.org/2000/svg" width="21.024" height="21.024" viewBox="0 0 21.024 21.024">
  <path id="Path_208" data-name="Path 208" d="M454.187,66.347c-4.278-4.278-.78-6.619-.78-6.619l3.662,3.662,1.11,1.111-.31.29-1.448,1.418-.332.39-.076.1a3.674,3.674,0,0,0-.489.986C455,67.164,454.539,66.7,454.187,66.347Zm12.338,6.5-.264.284L464.71,74.7l-.014.012,4.971,4.971a.7.7,0,0,0,.986,0l.862-.862a.7.7,0,0,0,0-.985Zm5.191-8.643-.134-.134a.542.542,0,0,0-.764,0l-6.848,6.848-1.347-1.347,6.848-6.848a.542.542,0,0,0,0-.764l-.4-.4a.542.542,0,0,0-.764,0L461.455,68.4l-1.347-1.347,6.848-6.848a.542.542,0,0,0,0-.764l-.134-.134a.566.566,0,0,0-.778-.014L458.955,65.9l-1.21,1.18-.225.226-.236.283a2.168,2.168,0,0,0,.236,2.771l.837.838-7.321,6.046a.484.484,0,0,0-.035.726l2.053,2.052a.483.483,0,0,0,.726-.034l6.048-7.319.834.833a2.168,2.168,0,0,0,2.772.236l.283-.235.226-.225,1.18-1.21,6.607-7.09A.565.565,0,0,0,471.716,64.2Z" transform="translate(-450.854 -59.148)" fill="#0b1822"/>
</svg>
