<?xml version="1.0" encoding="utf-8"?>
<!-- Generator: Adobe Illustrator 25.0.0, SVG Export Plug-In . SVG Version: 6.00 Build 0)  -->
<svg version="1.1" id="Layer_1" xmlns="http://www.w3.org/2000/svg" xmlns:xlink="http://www.w3.org/1999/xlink" x="0px" y="0px"
	 width="35px" height="35px" viewBox="0 0 35 35" style="enable-background:new 0 0 35 35;" xml:space="preserve">
<path style="fill:#0F1F2D;" d="M10.32,14.19C6.04,9.91,9.54,7.57,9.54,7.57l3.66,3.66l1.11,1.11L14,12.63l-1.45,1.42l-0.33,0.39
	l-0.08,0.1c-0.22,0.31-0.38,0.64-0.49,0.99C11.14,15,10.67,14.54,10.32,14.19z M22.66,20.69l-0.26,0.28l-1.55,1.57l-0.01,0.01
	l4.97,4.97c0.27,0.27,0.71,0.27,0.99,0l0.86-0.86c0.27-0.27,0.27-0.71,0-0.99L22.66,20.69z M27.85,12.04l-0.13-0.13
	c-0.21-0.21-0.55-0.21-0.76,0l-6.85,6.85l-1.35-1.35l6.85-6.85c0.21-0.21,0.21-0.55,0-0.76l-0.4-0.4c-0.21-0.21-0.55-0.21-0.76,0
	l-6.85,6.85l-1.35-1.35l6.85-6.85c0.21-0.21,0.21-0.55,0-0.76l-0.13-0.13c-0.21-0.21-0.56-0.22-0.78-0.01l-7.09,6.61l-1.21,1.18
	l-0.23,0.23l-0.24,0.28c-0.59,0.84-0.52,2.02,0.24,2.77l0.84,0.84l-7.32,6.05c-0.23,0.19-0.24,0.52-0.03,0.73l2.05,2.05
	c0.21,0.21,0.54,0.19,0.73-0.03l6.05-7.32l0.83,0.83c0.75,0.75,1.93,0.83,2.77,0.24l0.28-0.24l0.23-0.22l1.18-1.21l6.61-7.09
	C28.07,12.6,28.06,12.25,27.85,12.04z"/>
</svg>
