<?xml version="1.0" encoding="utf-8"?>
<!-- Generator: Adobe Illustrator 25.0.0, SVG Export Plug-In . SVG Version: 6.00 Build 0)  -->
<svg version="1.1" id="Layer_1" xmlns="http://www.w3.org/2000/svg" xmlns:xlink="http://www.w3.org/1999/xlink" x="0px" y="0px"
	 width="35px" height="35px" viewBox="0 0 35 35" style="enable-background:new 0 0 35 35;" xml:space="preserve">
<path style="fill:#0F1F2D;" d="M29.9,18.83c1.09,2.33,0.68,5.2-1.24,7.12c-1.13,1.13-2.61,1.75-4.18,1.75h0
	c-1.67,0-3.28-0.69-4.53-1.94l-1.79-1.79l1.75-1.75l1.79,1.79c0.78,0.78,1.77,1.22,2.78,1.22h0c0.92,0,1.75-0.36,2.43-1.03
	c0.93-0.93,1.28-2.22,1.05-3.43L29.9,18.83z M18.99,21.31l1.09-1.09l0.52,0.52c1.05,1.05,2.74,1.04,3.79,0l2.41-2.41
	c0.55,0.36,0.97,0.52,1.11,0.37l1.01-1.01l-6.88-6.88l-0.62-0.62l0,0l-0.74-0.74l-1.01,1.01c-0.15,0.15,0.01,0.57,0.37,1.11
	l-2.41,2.41c-1.05,1.05-1.05,2.74,0,3.78l0.71,0.71l-1.09,1.09h0l-1.75,1.75h0l-0.74,0.74l-0.11,0.11h0l-1.85,1.85
	c-0.72,0.72-1.68,1.12-2.7,1.12c-1.02,0-1.98-0.4-2.7-1.12c-0.72-0.72-1.12-1.68-1.12-2.7c0-1.02,0.4-1.98,1.12-2.7
	c0.72-0.72,1.68-1.12,2.7-1.12c1.02,0,1.98,0.4,2.7,1.12l1.78,1.78l1.75-1.75l-1.78-1.78c-1.19-1.19-2.77-1.84-4.45-1.84
	c-1.68,0-3.26,0.65-4.45,1.84c-1.19,1.19-1.84,2.77-1.84,4.45c0,1.68,0.65,3.26,1.84,4.45c1.19,1.19,2.77,1.84,4.45,1.84
	c1.68,0,3.26-0.65,4.45-1.84l2.7-2.7l0,0L18.99,21.31L18.99,21.31z M27.54,8.71c0.19-0.19,0.19-0.51,0-0.71l-0.55-0.55
	c-0.19-0.19-0.51-0.19-0.71,0l-3.35,3.35l1.26,1.26L27.54,8.71z M31.06,11.51l-0.55-0.55c-0.19-0.19-0.51-0.2-0.71,0l-3.35,3.35
	l1.26,1.26l3.35-3.35C31.25,12.02,31.25,11.71,31.06,11.51z"/>
</svg>
