<svg xmlns="http://www.w3.org/2000/svg" width="27.401" height="20.401" viewBox="0 0 27.401 20.401">
  <path id="Path_209" data-name="Path 209" d="M431.454,104.954a6.3,6.3,0,0,1-1.24,7.122,5.882,5.882,0,0,1-4.177,1.753h0a6.407,6.407,0,0,1-4.535-1.942l-1.788-1.788,1.751-1.75,1.788,1.788a3.951,3.951,0,0,0,2.784,1.216h0a3.376,3.376,0,0,0,2.426-1.027,3.817,3.817,0,0,0,1.047-3.428Zm-10.9,2.483,1.089-1.089.521.521a2.674,2.674,0,0,0,3.785,0l2.414-2.413c.548.362.968.52,1.114.373l1.013-1.012-6.884-6.884-.625-.625h0l-.742-.743-1.012,1.012c-.148.146.01.567.372,1.114l-2.414,2.414a2.675,2.675,0,0,0,0,3.785l.709.709-1.089,1.089h0l-1.75,1.751h0l-.743.742-.109.109h0l-1.848,1.849a3.818,3.818,0,1,1,0-5.4l1.783,1.783,1.751-1.75-1.783-1.784a6.3,6.3,0,1,0,0,8.9l2.7-2.7,0,0,1.751-1.751Zm8.551-12.6a.5.5,0,0,0,0-.708l-.553-.552a.5.5,0,0,0-.708,0l-3.349,3.35,1.261,1.261Zm3.51,2.805-.552-.553a.5.5,0,0,0-.708,0L428,100.434l1.261,1.26,3.348-3.347A.5.5,0,0,0,432.614,97.639Z" transform="translate(-405.358 -93.428)" fill="#0b1822"/>
</svg>
