<svg xmlns="http://www.w3.org/2000/svg" width="21.879" height="21.878" viewBox="0 0 21.879 21.878">
  <path id="Path_210" data-name="Path 210" d="M434.588,67.833a5.924,5.924,0,0,0-.44-1.084,5.633,5.633,0,0,0-.3-.512,6.019,6.019,0,0,0-5.572-2.678,6.109,6.109,0,0,0-.709.111,5.964,5.964,0,0,0-2.329,1.059,6.167,6.167,0,0,0-.663.564l-9.855,9.856a6.012,6.012,0,1,0,8.5,8.5l9.386-9.385.469-.47a6,6,0,0,0,.771-.943,5.985,5.985,0,0,0,.742-1.6A6.024,6.024,0,0,0,434.588,67.833ZM421.66,82.091a3.806,3.806,0,1,1-5.382-5.382l4.925-4.926,5.383,5.382Zm9.9-14.947a.48.48,0,0,1-.678,0,2.849,2.849,0,0,0-4.025,0L424.4,69.6a.48.48,0,1,1-.679-.679l2.457-2.458a3.811,3.811,0,0,1,5.382,0A.479.479,0,0,1,431.565,67.144Z" transform="translate(-412.957 -63.534)" fill="#0b1822"/>
</svg>
