<svg xmlns="http://www.w3.org/2000/svg" width="14.192" height="23.855" viewBox="0 0 14.192 23.855">
  <path id="Path_216" data-name="Path 216" d="M288.3,89.2c.415,1.65.27,2.57-1.219,2.88s-2.986-.41-4.249,0a1.694,1.694,0,0,1-2.306-1.86c.055-1.43-1.159-.9-2.676-.2-1.79.816-2.813-.413-2.752-2.27s1.551-1.551,2.764-1.139,1.586-1.154,1.586-1.154.275-1.533,1.016-1.524c.629.007.148.736,1.142,1.341a2.779,2.779,0,0,0,1.858.271c1.175-.145,2.43.318,3.773-.658,1.266-.919,1.685,1.212,1.183,1.831S287.887,87.547,288.3,89.2Zm-1.455,3.4c-1.343.976-2.6.512-3.773.657a2.773,2.773,0,0,1-1.858-.271c-.994-.6-.514-1.334-1.143-1.341-.74-.009-1.015,1.524-1.015,1.524s-.373,1.568-1.586,1.155-2.7-.719-2.764,1.139.961,3.085,2.751,2.27c1.518-.692,2.732-1.226,2.677.2a1.693,1.693,0,0,0,2.306,1.859c1.263-.413,2.76.307,4.249,0s1.634-1.229,1.219-2.88-.382-1.863.12-2.482S288.114,91.679,286.848,92.6Zm-.269,7.88c-1.343.976-2.6.513-3.773.658a2.779,2.779,0,0,1-1.858-.271c-.994-.6-.514-1.334-1.143-1.342-.741-.008-1.015,1.524-1.015,1.524s-.373,1.568-1.586,1.155-2.7-.718-2.764,1.139.961,3.086,2.751,2.27c1.518-.692,2.732-1.226,2.676.2a1.694,1.694,0,0,0,2.306,1.86c1.264-.413,2.761.306,4.25,0s1.634-1.23,1.219-2.881-.382-1.863.12-2.482S287.845,99.559,286.579,100.478Z" transform="translate(-274.437 -83.93)" fill="#0b1822"/>
</svg>
