<?xml version="1.0" encoding="utf-8"?>
<!-- Generator: Adobe Illustrator 25.0.0, SVG Export Plug-In . SVG Version: 6.00 Build 0)  -->
<svg version="1.1" id="Layer_1" xmlns="http://www.w3.org/2000/svg" xmlns:xlink="http://www.w3.org/1999/xlink" x="0px" y="0px"
	 width="35px" height="35px" viewBox="0 0 35 35" style="enable-background:new 0 0 35 35;" xml:space="preserve">
<path style="fill:#0F1F2D;" d="M24.27,10.84c0.42,1.65,0.27,2.57-1.22,2.88c-1.49,0.31-2.99-0.41-4.25,0
	c-1.26,0.41-2.36-0.35-2.31-1.86c0.06-1.43-1.16-0.9-2.68-0.2c-1.79,0.82-2.81-0.41-2.75-2.27c0.06-1.86,1.55-1.55,2.76-1.14
	c1.21,0.41,1.59-1.15,1.59-1.15s0.27-1.53,1.02-1.52c0.63,0.01,0.15,0.74,1.14,1.34c0.58,0.35,1.23,0.35,1.86,0.27
	c1.17-0.15,2.43,0.32,3.77-0.66c1.27-0.92,1.68,1.21,1.18,1.83C23.89,8.98,23.85,9.19,24.27,10.84z M22.81,14.24
	c-1.34,0.98-2.6,0.51-3.77,0.66c-0.63,0.08-1.28,0.08-1.86-0.27c-0.99-0.6-0.51-1.33-1.14-1.34c-0.74-0.01-1.02,1.52-1.02,1.52
	s-0.37,1.57-1.59,1.15c-1.21-0.41-2.7-0.72-2.76,1.14c-0.06,1.86,0.96,3.09,2.75,2.27c1.52-0.69,2.73-1.23,2.68,0.2
	c-0.06,1.51,1.04,2.27,2.31,1.86c1.26-0.41,2.76,0.31,4.25,0c1.49-0.31,1.63-1.23,1.22-2.88c-0.42-1.65-0.38-1.86,0.12-2.48
	C24.5,15.45,24.08,13.32,22.81,14.24z M22.55,22.12c-1.34,0.98-2.6,0.51-3.77,0.66c-0.63,0.08-1.28,0.08-1.86-0.27
	c-0.99-0.6-0.51-1.33-1.14-1.34c-0.74-0.01-1.02,1.52-1.02,1.52s-0.37,1.57-1.59,1.15c-1.21-0.41-2.7-0.72-2.76,1.14
	c-0.06,1.86,0.96,3.09,2.75,2.27c1.52-0.69,2.73-1.23,2.68,0.2c-0.06,1.51,1.04,2.27,2.31,1.86c1.26-0.41,2.76,0.31,4.25,0
	c1.49-0.31,1.63-1.23,1.22-2.88c-0.42-1.65-0.38-1.86,0.12-2.48C24.23,23.33,23.81,21.2,22.55,22.12z"/>
</svg>
