<?xml version="1.0" encoding="utf-8"?>
<!-- Generator: Adobe Illustrator 25.0.0, SVG Export Plug-In . SVG Version: 6.00 Build 0)  -->
<svg version="1.1" id="Layer_1" xmlns="http://www.w3.org/2000/svg" xmlns:xlink="http://www.w3.org/1999/xlink" x="0px" y="0px"
	 width="35px" height="35px" viewBox="0 0 35 35" style="enable-background:new 0 0 35 35;" xml:space="preserve">
<path style="fill-rule:evenodd;clip-rule:evenodd;fill:#0F1F2D;" d="M30.54,19.43c-0.3,0-0.54-0.36-0.54-0.8v-1.42
	c0-0.44-0.21-1.1-0.47-1.45l-2.98-4.1C26.29,11.29,25.71,11,25.27,11h-4.02c-0.44,0-0.8,0.36-0.8,0.8v7.57h-0.83v-9.34
	c0-0.44-0.36-0.8-0.8-0.8H4.72c-0.44,0-0.8,0.36-0.8,0.8v12.24c0,0.44,0.23,0.8,0.51,0.8c0.28,0,0.51,0.01,0.51,0.01
	c0,0.01,0.28,0.01,0.63,0.01c0.11,0,0.25,0,0.41,0c0.08,1.47,1.3,2.65,2.79,2.65c1.2,0,2.23-0.76,2.63-1.82
	c0.4,1.06,1.42,1.82,2.62,1.82c1.5,0,2.72-1.17,2.8-2.65h0.59h0.71h0.7h2.44h0.25h0.3h1.02c0.08,1.47,1.3,2.65,2.79,2.65
	c1.5,0,2.72-1.17,2.8-2.65h0.82c0.12,0,0.25,0,0.37,0c0.22,0,0.65,0,0.95,0c0.3,0,0.54-0.36,0.54-0.8v-2.07
	C31.08,19.8,30.84,19.43,30.54,19.43z M8.83,23.86c-0.54,0-0.97-0.43-0.97-0.97c0-0.54,0.43-0.97,0.97-0.97
	c0.53,0,0.97,0.43,0.97,0.97C9.8,23.43,9.37,23.86,8.83,23.86z M14.08,23.86c-0.54,0-0.97-0.43-0.97-0.97
	c0-0.54,0.43-0.97,0.97-0.97c0.53,0,0.97,0.43,0.97,0.97C15.05,23.43,14.61,23.86,14.08,23.86z M25.68,23.86
	c-0.53,0-0.97-0.43-0.97-0.97c0-0.54,0.43-0.97,0.97-0.97c0.54,0,0.97,0.43,0.97,0.97C26.65,23.43,26.22,23.86,25.68,23.86z
	 M26.94,16.73h-3.66c-0.44,0-0.8-0.36-0.8-0.8v-2.09c0-0.44,0.36-0.8,0.8-0.8h0.97c0.44,0,1.02,0.29,1.28,0.65l1.75,2.4
	C27.53,16.44,27.38,16.73,26.94,16.73z"/>
</svg>
