<svg xmlns="http://www.w3.org/2000/svg" width="25.947" height="23.093" viewBox="0 0 25.947 23.093">
  <path id="Path_215" data-name="Path 215" d="M236.606,88.132a7.45,7.45,0,0,1,7.81.015,4.265,4.265,0,0,1-1.205,1.6,5.477,5.477,0,0,0-5.406-.011A4.271,4.271,0,0,1,236.606,88.132Zm.377,13.033a4.237,4.237,0,0,0,.625-1.946,5.5,5.5,0,0,1-2.6-4.217,4.252,4.252,0,0,0-1.64-.327c-.124,0-.247.008-.37.018A7.5,7.5,0,0,0,236.983,101.165Zm6.406-1.946a4.238,4.238,0,0,0,.626,1.946,7.5,7.5,0,0,0,3.979-6.472c-.122-.01-.245-.018-.37-.018a4.247,4.247,0,0,0-1.639.327A5.505,5.505,0,0,1,243.389,99.219Zm9.335,1.338a.078.078,0,0,1-.08.012c-.084-.03-.051-.138-.051-.138h-.005a5.2,5.2,0,1,0-3.483,3.483v0s.108-.034.138.051a.077.077,0,0,1-.012.08,7.493,7.493,0,0,1-8.562-1.443c-.061-.061-.113-.127-.171-.19-.059.063-.111.129-.172.19a7.493,7.493,0,0,1-8.562,1.443.079.079,0,0,1-.012-.08c.03-.085.139-.051.139-.051v0a5.2,5.2,0,1,0-3.483-3.483h0s.034.108-.051.138a.079.079,0,0,1-.08-.012,7.48,7.48,0,0,1,4.838-10.506A7.437,7.437,0,0,1,238.03,81.7a.079.079,0,0,1,.065.048c.038.082-.062.134-.062.134l0,0a5.2,5.2,0,1,0,4.926,0l0,0s-.1-.052-.062-.134a.079.079,0,0,1,.065-.048,7.437,7.437,0,0,1,4.918,8.347,7.479,7.479,0,0,1,4.838,10.506Zm-11.135-6.019a1.09,1.09,0,1,0-1.09,1.09A1.09,1.09,0,0,0,241.589,94.538Z" transform="translate(-227.525 -81.704)" fill="#0b1822"/>
</svg>
