<?xml version="1.0" encoding="utf-8"?>
<!-- Generator: Adobe Illustrator 25.0.0, SVG Export Plug-In . SVG Version: 6.00 Build 0)  -->
<svg version="1.1" id="Layer_1" xmlns="http://www.w3.org/2000/svg" xmlns:xlink="http://www.w3.org/1999/xlink" x="0px" y="0px"
	 width="35px" height="35px" viewBox="0 0 35 35" style="enable-background:new 0 0 35 35;" xml:space="preserve">
<path style="fill:#0F1F2D;" d="M13.61,12.38c1.14-0.69,2.47-1.1,3.89-1.1c1.44,0,2.78,0.41,3.92,1.11c-0.27,0.63-0.69,1.17-1.21,1.6
	c-0.8-0.46-1.73-0.72-2.71-0.72c-0.98,0-1.9,0.26-2.69,0.71C14.29,13.56,13.88,13.01,13.61,12.38z M13.98,25.41
	c0.37-0.6,0.58-1.27,0.63-1.95c-1.44-0.9-2.45-2.43-2.6-4.22c-0.51-0.21-1.07-0.33-1.64-0.33c-0.12,0-0.25,0.01-0.37,0.02
	C10.06,21.75,11.66,24.18,13.98,25.41z M20.39,23.47c0.05,0.68,0.26,1.35,0.63,1.95c2.33-1.24,3.92-3.66,3.98-6.47
	c-0.12-0.01-0.25-0.02-0.37-0.02c-0.57,0-1.13,0.11-1.64,0.33C22.84,21.03,21.83,22.57,20.39,23.47z M29.73,24.81
	c-0.02,0.01-0.04,0.02-0.08,0.01c-0.08-0.03-0.05-0.14-0.05-0.14l0,0c0.53-1.77,0.1-3.77-1.3-5.17c-2.03-2.03-5.32-2.03-7.35,0
	c-2.03,2.03-2.03,5.32,0,7.35c1.4,1.4,3.4,1.83,5.17,1.3l0,0.01c0,0,0.11-0.03,0.14,0.05c0.01,0.04,0,0.06-0.01,0.08
	c-2.79,1.35-6.24,0.88-8.56-1.44c-0.06-0.06-0.11-0.13-0.17-0.19c-0.06,0.06-0.11,0.13-0.17,0.19c-2.32,2.32-5.77,2.79-8.56,1.44
	c-0.01-0.02-0.02-0.04-0.01-0.08c0.03-0.08,0.14-0.05,0.14-0.05l0-0.01c1.77,0.53,3.77,0.1,5.17-1.3c2.03-2.03,2.03-5.32,0-7.35
	c-2.03-2.03-5.32-2.03-7.35,0c-1.4,1.4-1.83,3.4-1.3,5.17l0,0c0,0,0.03,0.11-0.05,0.14c-0.04,0.01-0.06,0-0.08-0.01
	c-1.35-2.79-0.88-6.24,1.44-8.56c0.97-0.97,2.15-1.62,3.4-1.94C10.04,13.89,10,13.46,10,13.03c0-3.28,2.11-6.05,5.03-7.07
	c0.02,0,0.05,0.01,0.07,0.05c0.04,0.08-0.06,0.13-0.06,0.13l0,0c-1.63,0.88-2.74,2.59-2.74,4.57c0,2.87,2.33,5.2,5.2,5.2
	c2.87,0,5.2-2.33,5.2-5.2c0-1.98-1.11-3.7-2.74-4.57l0,0c0,0-0.1-0.05-0.06-0.13c0.02-0.04,0.04-0.05,0.07-0.05
	C22.9,6.97,25,9.75,25,13.03c0,0.43-0.04,0.86-0.12,1.27c1.24,0.33,2.42,0.97,3.4,1.94C30.6,18.56,31.07,22.01,29.73,24.81z
	 M18.59,18.79c0-0.6-0.49-1.09-1.09-1.09c-0.6,0-1.09,0.49-1.09,1.09c0,0.6,0.49,1.09,1.09,1.09C18.1,19.88,18.59,19.39,18.59,18.79
	z"/>
</svg>
