<svg xmlns="http://www.w3.org/2000/svg" width="27.16" height="16.517" viewBox="0 0 27.16 16.517">
  <path id="Path_204" data-name="Path 204" d="M555.713,49.951c-.3,0-.539-.362-.539-.8v-1.42a2.9,2.9,0,0,0-.473-1.454l-2.98-4.1a1.777,1.777,0,0,0-1.276-.651h-4.022a.806.806,0,0,0-.8.8V49.9h-.833V40.564a.806.806,0,0,0-.8-.8H529.9a.807.807,0,0,0-.8.8V52.8c0,.443.229.8.51.8a5.075,5.075,0,0,1,.509.013c0,.006.282.01.626.01h.407a9.607,9.607,0,0,1,8.038,2.646,2.8,2.8,0,0,0,2.8-2.646h6.012a2.8,2.8,0,0,0,5.59,0h2.131c.3,0,.54-.361.54-.8V50.755C556.253,50.314,556.01,49.951,555.713,49.951Zm-21.707,4.431a.968.968,0,1,1,.968-.968A.967.967,0,0,1,534.006,54.382Zm5.246,0a.968.968,0,1,1,.968-.968A.968.968,0,0,1,539.252,54.382Zm11.6,0a.968.968,0,1,1,.968-.968A.969.969,0,0,1,550.853,54.382Zm1.256-7.133h-3.662a.805.805,0,0,1-.8-.8V44.352a.807.807,0,0,1,.8-.8h.97a1.782,1.782,0,0,1,1.277.651l1.747,2.4C552.7,46.957,552.552,47.249,552.109,47.249Z" transform="translate(-529.093 -39.76)" fill="#0b1822" fill-rule="evenodd"/>
</svg>
