<?xml version="1.0" encoding="utf-8"?>
<!-- Generator: Adobe Illustrator 25.0.0, SVG Export Plug-In . SVG Version: 6.00 Build 0)  -->
<svg version="1.1" id="Layer_1" xmlns="http://www.w3.org/2000/svg" xmlns:xlink="http://www.w3.org/1999/xlink" x="0px" y="0px"
	 width="35px" height="35px" viewBox="0 0 35 35" style="enable-background:new 0 0 35 35;" xml:space="preserve">
<path style="fill:#0F1F2D;" d="M18.16,11.28c-0.66-0.05-1.27-0.38-1.76-0.77c-0.01,0.61-0.13,1.27-0.5,1.86
	c-0.37,0.58-0.92,0.94-1.47,1.17c0.53,0.32,1.03,0.76,1.29,1.39l-1.02,0.42c-0.36-0.87-1.76-1.31-2.27-1.4
	c-0.28-0.05-0.47-0.31-0.45-0.59c0.02-0.28,0.26-0.5,0.54-0.5c0.02,0,1.8-0.04,2.45-1.07c0.67-1.05,0.11-2.7,0.11-2.72
	c-0.09-0.26,0.03-0.54,0.27-0.67c0.24-0.13,0.54-0.05,0.7,0.17c0.3,0.43,1.29,1.56,2.19,1.62c0.91,0.06,2.04-0.9,2.41-1.28l0.8,0.76
	C21.28,9.83,19.74,11.4,18.16,11.28z M17.08,17.68c1.2,1.59,1.09,4.77,1.09,4.77c0,0.63-0.8,1.01-1.91,1.24
	c-0.16-2.05-1.87-3.66-3.96-3.66c-2.17,0-3.93,1.74-3.97,3.9c-1.36,0-3.54,0-6.02,0v-13c2.32,0,3.65,0.32,5.22,0.81
	c1.43,0.44,3.71,3.56,4.19,4.27C11.71,16.01,15.88,16.09,17.08,17.68z M8.82,15.76c0,0-1.53-2.38-2.3-2.62
	c-1.65-0.53-2.85-0.48-2.85-0.48v2.98L8.82,15.76z M15.33,24.01c0,1.68-1.36,3.03-3.03,3.03c-1.68,0-3.03-1.36-3.03-3.03
	c0-1.68,1.36-3.03,3.03-3.03C13.97,20.97,15.33,22.33,15.33,24.01z M13.4,24.01c0-0.61-0.49-1.1-1.1-1.1c-0.61,0-1.1,0.49-1.1,1.1
	c0,0.61,0.49,1.1,1.1,1.1C12.91,25.11,13.4,24.61,13.4,24.01z M32.7,20.46c-0.63,0.18-1.16,0.32-1.64,0.44
	c-0.01-0.31-0.06-0.62-0.14-0.92c-0.6-2.11-2.8-3.34-4.91-2.74c-2.11,0.6-3.34,2.8-2.74,4.91c0.05,0.18,0.12,0.36,0.2,0.53
	c-1.88,0.38-3.68,0.49-3.94-0.41c0,0-1.07-2.38-0.35-4.24c0.72-1.86,2.31-2.61,2.31-2.61c0.27-0.81,1.61-4.43,2.86-5.25
	c1.38-0.9,2.56-1.57,4.8-2.21L32.7,20.46z M29.11,12.86L28.3,10c0,0-1.17,0.28-2.61,1.24c-0.67,0.44-1.49,3.15-1.49,3.15
	L29.11,12.86z M30.01,20.23c0.46,1.61-0.48,3.29-2.09,3.75c-1.61,0.46-3.29-0.48-3.75-2.09c-0.46-1.61,0.48-3.29,2.09-3.75
	C27.87,17.69,29.55,18.62,30.01,20.23z M28.15,20.76c-0.17-0.58-0.78-0.92-1.36-0.76c-0.58,0.17-0.92,0.77-0.76,1.36
	c0.17,0.58,0.78,0.92,1.36,0.76C27.97,21.96,28.31,21.35,28.15,20.76z"/>
</svg>
