<svg xmlns="http://www.w3.org/2000/svg" width="30.391" height="19.082" viewBox="0 0 30.391 19.082">
  <path id="Path_205" data-name="Path 205" d="M511.4,115.123a3.337,3.337,0,0,1-1.764-.774,3.524,3.524,0,0,1-.5,1.858,3.136,3.136,0,0,1-1.467,1.175,3,3,0,0,1,1.287,1.385l-1.02.418c-.357-.872-1.76-1.309-2.27-1.4a.551.551,0,0,1,.092-1.092c.017,0,1.8-.043,2.448-1.071a3.7,3.7,0,0,0,.109-2.717.551.551,0,0,1,.97-.5c.3.429,1.292,1.556,2.2,1.623a3.958,3.958,0,0,0,2.408-1.285l.8.76C514.518,113.679,512.982,115.241,511.4,115.123Zm-1.082,6.4c1.2,1.591,1.087,4.765,1.087,4.765,0,.631-.8,1.013-1.906,1.241a3.975,3.975,0,0,0-7.936.242h-6.019v-13a15.487,15.487,0,0,1,5.217.812c1.427.445,3.714,3.558,4.192,4.268C504.954,119.854,509.118,119.933,510.319,121.524Zm-8.258-1.919s-1.531-2.38-2.3-2.625a9.06,9.06,0,0,0-2.853-.475v2.976Zm6.511,8.246a3.033,3.033,0,1,1-3.033-3.034A3.033,3.033,0,0,1,508.572,127.851Zm-1.933,0a1.1,1.1,0,1,0-1.1,1.1A1.1,1.1,0,0,0,506.639,127.85Zm19.3-3.545c-.625.178-1.162.32-1.637.438A3.977,3.977,0,1,0,516.5,126a4.128,4.128,0,0,0,.2.526c-1.877.381-3.682.491-3.938-.411a6.44,6.44,0,0,1-.346-4.238,5.084,5.084,0,0,1,2.307-2.611c.266-.813,1.614-4.434,2.864-5.251a15.485,15.485,0,0,1,4.8-2.209Zm-3.581-7.6-.815-2.862a9.063,9.063,0,0,0-2.614,1.237c-.67.445-1.491,3.153-1.491,3.153Zm.891,7.375a3.034,3.034,0,1,1-3.748-2.088A3.033,3.033,0,0,1,523.246,124.079Zm-1.859.528a1.1,1.1,0,1,0-.758,1.361A1.1,1.1,0,0,0,521.387,124.607Z" transform="translate(-495.545 -111.803)" fill="#0b1822"/>
</svg>
