<svg xmlns="http://www.w3.org/2000/svg" width="96.987" height="60.09" viewBox="0 0 96.987 60.09">
  <g id="PSB-logo-stacked" transform="translate(-665.378 -314.448)">
    <path id="Path_60" data-name="Path 60" d="M672.991,323.515h-1.125v4.662a1.13,1.13,0,0,0,.726,1.148,9.046,9.046,0,0,0,1.757.327v.8h-8.972v-.8a10.623,10.623,0,0,0,1.851-.258,1.083,1.083,0,0,0,.726-1.147V316.791a1.072,1.072,0,0,0-.726-1.147,7.68,7.68,0,0,0-1.851-.4v-.8h8.644c4.1,0,6.138,1.312,6.138,3.983C680.16,321.992,676.647,323.515,672.991,323.515Zm-.234-8.13h-.89v7.146h.446c2.646,0,3.654-1.406,3.654-3.514C675.967,316.65,675.123,315.385,672.757,315.385Z" transform="translate(0 0)" fill="#fff"/>
    <path id="Path_61" data-name="Path 61" d="M688.39,331.426v-.6c.632-.036,1.841-.216,1.841-.523a1.4,1.4,0,0,0-.091-.4l-1.01-2.616h-4.005c-.216.523-.469,1.282-.613,1.75a3.411,3.411,0,0,0-.18,1.011c0,.541,1.371.722,2,.758v.614h-5.16v-.614a3.233,3.233,0,0,0,1.209-.307,2.336,2.336,0,0,0,1.029-1.227c1.245-3.1,2.76-6.91,4.131-10.373h1.48c1.858,4.709,3.5,9.021,4.2,10.734a1.693,1.693,0,0,0,.812.866,2.889,2.889,0,0,0,1.137.307v.614Zm-1.281-9.2-1.642,4.222h3.32Z" transform="translate(-3.46 -0.976)" fill="#fff"/>
    <path id="Path_62" data-name="Path 62" d="M711.387,320.205c-.433.307-.6.993-.6,2.472v8.876h-1.3l-7.632-9.508v5.827c0,1.5.217,2.129.614,2.454a4.837,4.837,0,0,0,1.731.541v.614h-5.538v-.614a4.366,4.366,0,0,0,1.677-.433c.433-.307.6-.993.6-2.472v-5.9a1.931,1.931,0,0,0-.56-1.443,4.227,4.227,0,0,0-1.768-.829v-.632h4.637l6.62,8.226v-4.618c0-1.5-.216-2.129-.613-2.453a4.832,4.832,0,0,0-1.732-.542v-.613h5.539v.613A4.358,4.358,0,0,0,711.387,320.205Z" transform="translate(-7.281 -1.032)" fill="#fff"/>
    <path id="Path_63" data-name="Path 63" d="M717.786,331.481v-.614a7.077,7.077,0,0,0,1.317-.162.835.835,0,0,0,.558-.884v-8.858a.848.848,0,0,0-.558-.884,5.622,5.622,0,0,0-1.317-.307v-.613h6.765v.613a6.712,6.712,0,0,0-1.317.217.8.8,0,0,0-.559.884v8.858a.868.868,0,0,0,.559.884,6.58,6.58,0,0,0,1.317.252v.614Z" transform="translate(-11.481 -1.032)" fill="#fff"/>
    <path id="Path_64" data-name="Path 64" d="M732.886,331.671a7.21,7.21,0,0,1-3.68-.938l-.56.847h-.686l-.126-4.636h.667c.668,1.714,1.984,3.916,4.06,3.916a2.12,2.12,0,0,0,2.345-2.075c0-.957-.65-1.642-2.021-2.111-.776-.271-1.786-.56-2.381-.812a3.6,3.6,0,0,1-2.363-3.445c0-1.948,1.624-3.626,4.4-3.626a6.742,6.742,0,0,1,3.229.847l.505-.722h.7l.091,4.366H736.4c-.74-1.948-1.588-3.7-3.536-3.7a1.915,1.915,0,0,0-1.984,1.894c0,.993.6,1.624,2,2.112.776.27,1.75.558,2.382.811a3.391,3.391,0,0,1,2.453,3.41C737.721,330.011,735.809,331.671,732.886,331.671Z" transform="translate(-13.682 -0.951)" fill="#fff"/>
    <path id="Path_65" data-name="Path 65" d="M750.049,331.481v-.614a6.853,6.853,0,0,0,1.3-.162.835.835,0,0,0,.56-.884v-4.33h-5.124v4.24a.868.868,0,0,0,.559.884,6.4,6.4,0,0,0,1.3.252v.614h-6.694v-.614a6.461,6.461,0,0,0,1.263-.162.835.835,0,0,0,.56-.884v-8.858a.847.847,0,0,0-.56-.884,5.176,5.176,0,0,0-1.263-.307v-.613h6.694v.613a6.535,6.535,0,0,0-1.3.217.8.8,0,0,0-.559.884v3.77h5.124v-3.681a.869.869,0,0,0-.56-.884,5.455,5.455,0,0,0-1.3-.307v-.613h6.694v.613a6.2,6.2,0,0,0-1.263.217.8.8,0,0,0-.559.884v8.858a.882.882,0,0,0,.559.884,5.07,5.07,0,0,0,1.263.252v.614Z" transform="translate(-16.774 -1.032)" fill="#fff"/>
    <path id="Path_66" data-name="Path 66" d="M672.178,358.716a9.37,9.37,0,0,1-4.78-1.218l-.725,1.1h-.89l-.164-6.02h.867c.867,2.225,2.576,5.084,5.271,5.084a2.752,2.752,0,0,0,3.045-2.694c0-1.242-.843-2.132-2.623-2.741-1.007-.351-2.319-.726-3.093-1.054a4.678,4.678,0,0,1-3.069-4.475c0-2.53,2.108-4.709,5.716-4.709a8.763,8.763,0,0,1,4.194,1.1l.656-.937h.914l.118,5.67h-.868c-.96-2.53-2.061-4.8-4.592-4.8a2.488,2.488,0,0,0-2.577,2.46c0,1.289.774,2.108,2.6,2.741,1.007.351,2.273.726,3.093,1.054,1.873.773,3.185,1.945,3.185,4.428C678.456,356.56,675.972,358.716,672.178,358.716Z" transform="translate(-0.053 -6.033)" fill="#fff"/>
    <path id="Path_67" data-name="Path 67" d="M691.834,359.5v-.614a6.871,6.871,0,0,0,1.3-.162.835.835,0,0,0,.559-.884v-4.33h-5.124v4.24a.868.868,0,0,0,.56.884,6.385,6.385,0,0,0,1.3.252v.614h-6.694v-.614a6.477,6.477,0,0,0,1.264-.162.835.835,0,0,0,.559-.884v-8.858A.847.847,0,0,0,685,348.1a5.156,5.156,0,0,0-1.264-.307v-.613h6.694v.613a6.475,6.475,0,0,0-1.3.217.8.8,0,0,0-.56.884v3.77h5.124v-3.681a.869.869,0,0,0-.559-.884,5.436,5.436,0,0,0-1.3-.307v-.613h6.693v.613a6.138,6.138,0,0,0-1.262.217.8.8,0,0,0-.56.884v8.858a.882.882,0,0,0,.56.884,5.056,5.056,0,0,0,1.262.252v.614Z" transform="translate(-4.021 -7.17)" fill="#fff"/>
    <path id="Path_68" data-name="Path 68" d="M715.626,359.5H703.9v-.614a8.26,8.26,0,0,0,1.426-.2.835.835,0,0,0,.559-.884v-8.822a.826.826,0,0,0-.559-.884,5.933,5.933,0,0,0-1.426-.307v-.613h10.988v3.139h-.668c-.27-.812-1.263-2.219-2.092-2.327a11.824,11.824,0,0,0-1.5-.091H708.9v4.835h1.209a1.949,1.949,0,0,0,1.588-.541,3.685,3.685,0,0,0,.667-1.606h.668v5.142h-.668a4.067,4.067,0,0,0-.667-1.7,1.916,1.916,0,0,0-1.588-.541H708.9v3.626c0,1.479.289,1.642,2.111,1.642.865,0,2.165.018,2.6-.433a11.891,11.891,0,0,0,1.624-2.67h.632Z" transform="translate(-8.439 -7.17)" fill="#fff"/>
    <path id="Path_69" data-name="Path 69" d="M726.246,359.446v-.6c.631-.036,1.84-.216,1.84-.523a1.393,1.393,0,0,0-.091-.4l-1.01-2.616H722.98c-.216.523-.469,1.282-.613,1.75a3.414,3.414,0,0,0-.181,1.011c0,.541,1.371.722,2,.758v.614h-5.16v-.614a3.229,3.229,0,0,0,1.209-.307,2.333,2.333,0,0,0,1.029-1.227c1.244-3.1,2.76-6.91,4.131-10.373h1.479c1.858,4.709,3.5,9.021,4.2,10.734a1.688,1.688,0,0,0,.811.866,2.893,2.893,0,0,0,1.136.307v.614Zm-1.281-9.2-1.642,4.222h3.32Z" transform="translate(-11.753 -7.115)" fill="#fff"/>
    <path id="Path_70" data-name="Path 70" d="M755.233,358.377c-.4-.469-.867-1.008-1.335-1.617a6.458,6.458,0,0,1-4.686,1.991c-2.53,0-4.592-1.43-4.592-3.937,0-2.061,1.382-3.467,4.03-4.989-1.242-1.757-1.8-3.022-1.8-4.17,0-2.155,1.828-3.608,4.17-3.608,2.179,0,3.538,1.1,3.538,2.882,0,1.335-.609,2.647-2.437,3.912,1.335,1.945,2.155,3.046,3.467,4.662a8.073,8.073,0,0,0,1.5-3.538c0-.469-.726-.679-1.873-.937v-.773h6.607v.773c-1.335.141-2.343.234-2.953.89-.609.679-1.359,2.577-2.647,4.358a10.559,10.559,0,0,0,2.647,2.623,9.823,9.823,0,0,0,3.186.657v.82Zm-6.069-7.825a3.589,3.589,0,0,0-1.381,2.975,3.3,3.3,0,0,0,3.42,3.256,3.23,3.23,0,0,0,2.109-.772C751.859,354.184,750.29,352.122,749.164,350.552Zm2.273-7.52c-.89,0-1.359.679-1.359,1.616,0,.726.352,1.64,1.5,3.4a4.084,4.084,0,0,0,1.5-2.975C753.077,343.805,752.4,343.032,751.438,343.032Z" transform="translate(-17.359 -6.046)" fill="#fff"/>
    <path id="Path_71" data-name="Path 71" d="M673.554,386.49h-8.176v-.8a10.693,10.693,0,0,0,1.851-.258,1.083,1.083,0,0,0,.726-1.148V372.832a1.073,1.073,0,0,0-.726-1.148,7.715,7.715,0,0,0-1.851-.4v-.8h8.55c3.772,0,5.974.961,5.974,3.561,0,2.225-1.9,3.185-4.1,3.724v.211c2.365.258,4.943,1.453,4.943,4.17C680.746,385.412,678.052,386.49,673.554,386.49Zm-.679-15.04c-.259,0-.774.023-1.055.047v6.02h.515c2.366,0,3.444-1.242,3.444-3.209A2.573,2.573,0,0,0,672.875,371.45Zm-.048,7.074c-.258,0-.82.024-1.007.047v5.951c.117.562.891,1.007,1.828,1.007,1.733,0,2.9-1.265,2.9-3.491C676.552,379.766,675.24,378.524,672.827,378.524Z" transform="translate(0 -12.277)" fill="#fff"/>
    <path id="Path_72" data-name="Path 72" d="M693.6,387.755c-3.59,0-6.675-2.472-6.675-6.351a6.416,6.416,0,0,1,6.747-6.621c3.609,0,6.73,2.417,6.73,6.4C700.4,384.814,697.892,387.755,693.6,387.755Zm.072-12.178c-2.147,0-3.338,2.111-3.338,5.737,0,3.121.975,5.647,3.338,5.647,2.345,0,3.319-2.472,3.319-5.719C696.989,378.392,696.178,375.577,693.67,375.577Z" transform="translate(-4.72 -13.218)" fill="#fff"/>
    <path id="Path_73" data-name="Path 73" d="M717.025,376.138a3.7,3.7,0,0,0-1.281,1.263c-.9,1.335-1.335,2.038-2.489,3.915a4.135,4.135,0,0,0-.776,2.579v1.8a.915.915,0,0,0,.559.92,8.316,8.316,0,0,0,1.48.288v.614h-7.09v-.614a8.839,8.839,0,0,0,1.479-.2.878.878,0,0,0,.559-.92v-2.255a3.194,3.194,0,0,0-.577-1.949c-.975-1.713-1.642-2.868-2.49-4.239a3.486,3.486,0,0,0-1.208-1.246,3.045,3.045,0,0,0-1.172-.288V375.2h7.161v.613c-.631.036-1.822.036-1.822.433,0,.252.4,1.118,2.833,5.249,2.255-3.536,2.905-4.745,2.905-5.034,0-.54-.866-.6-1.7-.649V375.2h4.691v.613A2.723,2.723,0,0,0,717.025,376.138Z" transform="translate(-8.465 -13.309)" fill="#fff"/>
    <path id="Path_74" data-name="Path 74" d="M733.178,387.522h-11.42v-.614a8.179,8.179,0,0,0,1.425-.2.834.834,0,0,0,.56-.883V377a.826.826,0,0,0-.56-.884,5.921,5.921,0,0,0-1.425-.307V375.2h6.874v.613a6.715,6.715,0,0,0-1.317.216.8.8,0,0,0-.56.884v8.227c0,1.479.307,1.642,2.13,1.642.865,0,1.895-.036,2.273-.433a10.359,10.359,0,0,0,1.624-2.725h.632Z" transform="translate(-12.351 -13.309)" fill="#fff"/>
    <path id="Path_75" data-name="Path 75" d="M748.869,387.522H737.142v-.614a8.179,8.179,0,0,0,1.425-.2.835.835,0,0,0,.56-.883V377a.826.826,0,0,0-.56-.884,5.929,5.929,0,0,0-1.425-.307V375.2h10.987v3.139h-.668c-.27-.811-1.263-2.219-2.092-2.327a11.98,11.98,0,0,0-1.5-.09h-1.732v4.835h1.209a1.949,1.949,0,0,0,1.588-.541,3.7,3.7,0,0,0,.668-1.606h.667v5.142H745.6a4.072,4.072,0,0,0-.668-1.7,1.918,1.918,0,0,0-1.588-.541h-1.209v3.627c0,1.479.289,1.642,2.111,1.642.866,0,2.166.018,2.6-.433a11.913,11.913,0,0,0,1.624-2.671h.632Z" transform="translate(-15.721 -13.309)" fill="#fff"/>
    <path id="Path_76" data-name="Path 76" d="M767.27,388.706h-7.5v-.4a5.383,5.383,0,0,0,.936-.13.549.549,0,0,0,.368-.581v-5.8a.542.542,0,0,0-.368-.58,3.875,3.875,0,0,0-.936-.2v-.4h4.517v.4a4.408,4.408,0,0,0-.866.142.528.528,0,0,0-.366.581v5.406c0,.972.2,1.078,1.4,1.078.568,0,1.244-.023,1.494-.284a6.816,6.816,0,0,0,1.067-1.79h.415Z" transform="translate(-20.677 -14.493)" fill="#fff"/>
    <path id="Path_77" data-name="Path 77" d="M777.383,388.706h-7.5v-.4a5.385,5.385,0,0,0,.936-.13.549.549,0,0,0,.368-.581v-5.8a.542.542,0,0,0-.368-.58,3.877,3.877,0,0,0-.936-.2v-.4h4.517v.4a4.4,4.4,0,0,0-.865.142.528.528,0,0,0-.367.581v5.406c0,.972.2,1.078,1.4,1.078.569,0,1.245-.023,1.494-.284a6.814,6.814,0,0,0,1.067-1.79h.415Z" transform="translate(-22.892 -14.493)" fill="#fff"/>
    <path id="Path_78" data-name="Path 78" d="M783.845,385.2h-.569v2.359a.57.57,0,0,0,.367.581,4.574,4.574,0,0,0,.889.166v.4h-4.541v-.4a5.374,5.374,0,0,0,.936-.13.548.548,0,0,0,.368-.581v-5.8a.542.542,0,0,0-.368-.58,3.868,3.868,0,0,0-.936-.2v-.4h4.376c2.075,0,3.106.664,3.106,2.016C787.472,384.426,785.694,385.2,783.845,385.2Zm-.119-4.114h-.45V384.7h.225a1.607,1.607,0,0,0,1.85-1.778C785.351,381.723,784.924,381.083,783.725,381.083Z" transform="translate(-25.108 -14.493)" fill="#fff"/>
  </g>
</svg>
