<svg xmlns="http://www.w3.org/2000/svg" width="98.053" height="21.419" viewBox="0 0 98.053 21.419">
  <g id="Group_63" data-name="Group 63" transform="translate(40 16465)">
    <path id="Path_41" data-name="Path 41" d="M675.127,338.739h-1.44v5.97a1.446,1.446,0,0,0,.93,1.47,11.577,11.577,0,0,0,2.25.42v1.02H665.378V346.6a13.694,13.694,0,0,0,2.37-.33,1.387,1.387,0,0,0,.93-1.47V330.13a1.374,1.374,0,0,0-.93-1.47,9.877,9.877,0,0,0-2.37-.51v-1.02h11.069c5.25,0,7.86,1.68,7.86,5.1C684.307,336.79,679.808,338.739,675.127,338.739Zm-.3-10.409h-1.14v9.149h.571c3.389,0,4.679-1.8,4.679-4.5C678.937,329.95,677.857,328.33,674.827,328.33Z" transform="translate(-705.378 -16791.65)" fill="#0438a5"/>
    <path id="Path_47" data-name="Path 47" d="M777.506,348.069a11.99,11.99,0,0,1-6.12-1.56l-.93,1.41h-1.14l-.21-7.71h1.11c1.11,2.851,3.3,6.51,6.75,6.51,2.4,0,3.9-1.5,3.9-3.449,0-1.591-1.08-2.73-3.359-3.511-1.29-.449-2.97-.929-3.96-1.349a5.991,5.991,0,0,1-3.93-5.73c0-3.24,2.7-6.03,7.32-6.03a11.213,11.213,0,0,1,5.37,1.41l.84-1.2h1.169l.151,7.26h-1.111c-1.229-3.24-2.639-6.15-5.879-6.15a3.185,3.185,0,0,0-3.3,3.15c0,1.65.99,2.7,3.33,3.51,1.29.45,2.91.93,3.96,1.349,2.4.991,4.079,2.491,4.079,5.67C785.545,345.309,782.365,348.069,777.506,348.069Z" transform="translate(-786.106 -16791.65)" fill="#0438a5"/>
    <path id="Path_52" data-name="Path 52" d="M892.707,347.619h-10.47V346.6a13.682,13.682,0,0,0,2.37-.33,1.387,1.387,0,0,0,.93-1.47V330.13a1.374,1.374,0,0,0-.93-1.47,9.878,9.878,0,0,0-2.37-.51v-1.02h10.95c4.83,0,7.649,1.23,7.649,4.56,0,2.85-2.43,4.08-5.249,4.769v.27c3.029.331,6.329,1.86,6.329,5.34C901.916,346.239,898.467,347.619,892.707,347.619Zm-.87-19.259c-.33,0-.99.03-1.351.06v7.709h.66c3.031,0,4.411-1.589,4.411-4.109C895.557,329.41,894.057,328.36,891.837,328.36Zm-.061,9.059c-.33,0-1.049.031-1.29.06v7.62c.151.72,1.141,1.29,2.341,1.29,2.22,0,3.72-1.62,3.72-4.47C896.547,339.009,894.866,337.419,891.776,337.419Z" transform="translate(-879.237 -16791.65)" fill="#0438a5"/>
    <g id="Group_62" data-name="Group 62" transform="translate(-359 2)">
      <path id="Path_57" data-name="Path 57" d="M986.234,347.619h-9.61V347.1a6.892,6.892,0,0,0,1.2-.167.7.7,0,0,0,.471-.744v-7.424a.7.7,0,0,0-.471-.744,4.961,4.961,0,0,0-1.2-.258v-.516h5.784v.516a5.63,5.63,0,0,0-1.108.182.676.676,0,0,0-.47.744v6.923c0,1.245.258,1.382,1.791,1.382.729,0,1.594-.031,1.913-.365a8.724,8.724,0,0,0,1.366-2.292h.532Z" transform="translate(-589.378 -16793.65)" fill="#0438a5"/>
      <path id="Path_58" data-name="Path 58" d="M996.348,347.619h-9.611V347.1a6.9,6.9,0,0,0,1.2-.167.7.7,0,0,0,.47-.744v-7.424a.7.7,0,0,0-.47-.744,4.968,4.968,0,0,0-1.2-.258v-.516h5.784v.516a5.642,5.642,0,0,0-1.108.182.676.676,0,0,0-.47.744v6.923c0,1.245.258,1.382,1.791,1.382.729,0,1.594-.031,1.913-.365a8.724,8.724,0,0,0,1.367-2.292h.531Z" transform="translate(-589.378 -16793.65)" fill="#0438a5"/>
      <path id="Path_59" data-name="Path 59" d="M1001.785,343.125h-.728v3.021a.733.733,0,0,0,.469.745,5.941,5.941,0,0,0,1.139.212v.516h-5.814V347.1a6.89,6.89,0,0,0,1.2-.167.7.7,0,0,0,.471-.744v-7.424a.7.7,0,0,0-.471-.744,4.96,4.96,0,0,0-1.2-.258v-.516h5.6c2.657,0,3.978.85,3.978,2.581C1006.431,342.138,1004.153,343.125,1001.785,343.125Zm-.152-5.268h-.576v4.63h.288a2.058,2.058,0,0,0,2.368-2.277C1003.713,338.677,1003.167,337.857,1001.633,337.857Z" transform="translate(-589.378 -16793.65)" fill="#0438a5"/>
    </g>
  </g>
</svg>
