<svg xmlns="http://www.w3.org/2000/svg" width="341.053" height="21.449" viewBox="0 0 341.053 21.449">
  <g id="PSB-logo-main" transform="translate(-665.378 -326.65)">
    <path id="Path_41" data-name="Path 41" d="M675.127,338.739h-1.44v5.97a1.446,1.446,0,0,0,.93,1.47,11.577,11.577,0,0,0,2.25.42v1.02H665.378V346.6a13.694,13.694,0,0,0,2.37-.33,1.387,1.387,0,0,0,.93-1.47V330.13a1.374,1.374,0,0,0-.93-1.47,9.877,9.877,0,0,0-2.37-.51v-1.02h11.069c5.25,0,7.86,1.68,7.86,5.1C684.307,336.79,679.808,338.739,675.127,338.739Zm-.3-10.409h-1.14v9.149h.571c3.389,0,4.679-1.8,4.679-4.5C678.937,329.95,677.857,328.33,674.827,328.33Z" fill="#fff"/>
    <path id="Path_42" data-name="Path 42" d="M690.414,347.619v-.762c.809-.046,2.357-.277,2.357-.67a1.779,1.779,0,0,0-.117-.508l-1.293-3.35h-5.129c-.277.67-.6,1.64-.785,2.241a4.363,4.363,0,0,0-.231,1.293c0,.694,1.756.925,2.564.97v.786h-6.607v-.786a4.12,4.12,0,0,0,1.548-.392,3,3,0,0,0,1.317-1.571c1.594-3.974,3.534-8.848,5.29-13.284h1.9c2.379,6.03,4.481,11.551,5.382,13.746a2.169,2.169,0,0,0,1.04,1.109,3.681,3.681,0,0,0,1.456.392v.786Zm-1.641-11.782-2.1,5.406h4.251Z" fill="#fff"/>
    <path id="Path_43" data-name="Path 43" d="M714.97,333.181c-.555.392-.763,1.27-.763,3.165v11.365h-1.663l-9.773-12.174V343c0,1.917.278,2.726.786,3.142a6.17,6.17,0,0,0,2.217.692v.786h-7.091v-.786a5.555,5.555,0,0,0,2.148-.554c.555-.392.763-1.27.763-3.165V335.56a2.473,2.473,0,0,0-.717-1.848,5.426,5.426,0,0,0-2.264-1.063v-.808h5.938l8.477,10.534v-5.914c0-1.918-.276-2.726-.785-3.142a6.184,6.184,0,0,0-2.218-.693v-.785h7.093v.785A5.563,5.563,0,0,0,714.97,333.181Z" fill="#fff"/>
    <path id="Path_44" data-name="Path 44" d="M717.786,347.619v-.786a9.06,9.06,0,0,0,1.687-.207,1.069,1.069,0,0,0,.715-1.132V334.151a1.085,1.085,0,0,0-.715-1.132,7.15,7.15,0,0,0-1.687-.393v-.785h8.663v.785a8.6,8.6,0,0,0-1.686.277,1.028,1.028,0,0,0-.716,1.132v11.343a1.111,1.111,0,0,0,.716,1.132,8.292,8.292,0,0,0,1.686.323v.786Z" fill="#fff"/>
    <path id="Path_45" data-name="Path 45" d="M734.3,347.966a9.22,9.22,0,0,1-4.712-1.2l-.717,1.086H728l-.161-5.937h.854c.855,2.194,2.541,5.013,5.2,5.013a2.714,2.714,0,0,0,3-2.656c0-1.225-.832-2.1-2.588-2.7-.993-.346-2.287-.716-3.049-1.039a4.613,4.613,0,0,1-3.026-4.413c0-2.494,2.079-4.643,5.636-4.643A8.632,8.632,0,0,1,738,332.557l.647-.924h.9l.116,5.59h-.855c-.948-2.494-2.033-4.736-4.528-4.736a2.453,2.453,0,0,0-2.541,2.426c0,1.271.762,2.079,2.564,2.7.994.346,2.241.716,3.05,1.04,1.848.762,3.141,1.917,3.141,4.366C740.494,345.84,738.046,347.966,734.3,347.966Z" fill="#fff"/>
    <path id="Path_46" data-name="Path 46" d="M752.321,347.619v-.786a8.772,8.772,0,0,0,1.663-.207,1.069,1.069,0,0,0,.717-1.132v-5.545H748.14v5.429a1.111,1.111,0,0,0,.716,1.132,8.064,8.064,0,0,0,1.664.323v.786h-8.572v-.786a8.273,8.273,0,0,0,1.617-.207,1.069,1.069,0,0,0,.717-1.132V334.151a1.085,1.085,0,0,0-.717-1.132,6.583,6.583,0,0,0-1.617-.393v-.785h8.572v.785a8.368,8.368,0,0,0-1.664.277,1.028,1.028,0,0,0-.716,1.132v4.829H754.7v-4.713a1.113,1.113,0,0,0-.717-1.132,6.938,6.938,0,0,0-1.663-.393v-.785h8.571v.785a7.933,7.933,0,0,0-1.617.277,1.028,1.028,0,0,0-.716,1.132v11.343a1.129,1.129,0,0,0,.716,1.132,6.4,6.4,0,0,0,1.617.323v.786Z" fill="#fff"/>
    <path id="Path_47" data-name="Path 47" d="M777.506,348.069a11.99,11.99,0,0,1-6.12-1.56l-.93,1.41h-1.14l-.21-7.71h1.11c1.11,2.851,3.3,6.51,6.75,6.51,2.4,0,3.9-1.5,3.9-3.449,0-1.591-1.08-2.73-3.359-3.511-1.29-.449-2.97-.929-3.96-1.349a5.991,5.991,0,0,1-3.93-5.73c0-3.24,2.7-6.03,7.32-6.03a11.213,11.213,0,0,1,5.37,1.41l.84-1.2h1.169l.151,7.26h-1.111c-1.229-3.24-2.639-6.15-5.879-6.15a3.185,3.185,0,0,0-3.3,3.15c0,1.65.99,2.7,3.33,3.51,1.29.45,2.91.93,3.96,1.349,2.4.991,4.079,2.491,4.079,5.67C785.545,345.309,782.365,348.069,777.506,348.069Z" fill="#fff"/>
    <path id="Path_48" data-name="Path 48" d="M797.595,347.619v-.786a8.783,8.783,0,0,0,1.663-.207,1.07,1.07,0,0,0,.717-1.132v-5.545h-6.562v5.429a1.112,1.112,0,0,0,.717,1.132,8.041,8.041,0,0,0,1.663.323v.786h-8.571v-.786a8.283,8.283,0,0,0,1.617-.207,1.069,1.069,0,0,0,.717-1.132V334.151a1.085,1.085,0,0,0-.717-1.132,6.594,6.594,0,0,0-1.617-.393v-.785h8.571v.785a8.359,8.359,0,0,0-1.663.277,1.029,1.029,0,0,0-.717,1.132v4.829h6.562v-4.713a1.114,1.114,0,0,0-.717-1.132,6.949,6.949,0,0,0-1.663-.393v-.785h8.57v.785a7.924,7.924,0,0,0-1.616.277,1.029,1.029,0,0,0-.717,1.132v11.343a1.13,1.13,0,0,0,.717,1.132,6.387,6.387,0,0,0,1.616.323v.786Z" fill="#fff"/>
    <path id="Path_49" data-name="Path 49" d="M822.4,347.619H807.388v-.786a10.473,10.473,0,0,0,1.825-.253,1.068,1.068,0,0,0,.717-1.132v-11.3a1.058,1.058,0,0,0-.717-1.132,7.591,7.591,0,0,0-1.825-.393v-.785h14.069v4.019H820.6c-.347-1.039-1.618-2.841-2.68-2.98a15.343,15.343,0,0,0-1.918-.115h-2.218v6.191h1.548a2.5,2.5,0,0,0,2.033-.693,4.73,4.73,0,0,0,.855-2.056h.854v6.584h-.854a5.2,5.2,0,0,0-.855-2.172,2.456,2.456,0,0,0-2.033-.693h-1.548v4.644c0,1.894.37,2.1,2.7,2.1,1.109,0,2.773.023,3.327-.554a15.23,15.23,0,0,0,2.079-3.42h.809Z" fill="#fff"/>
    <path id="Path_50" data-name="Path 50" d="M831.759,347.619v-.762c.808-.046,2.356-.277,2.356-.67a1.778,1.778,0,0,0-.116-.508l-1.293-3.35h-5.129c-.277.67-.6,1.64-.785,2.241a4.365,4.365,0,0,0-.231,1.293c0,.694,1.755.925,2.564.97v.786h-6.607v-.786a4.116,4.116,0,0,0,1.547-.392,3,3,0,0,0,1.318-1.571c1.594-3.974,3.534-8.848,5.29-13.284h1.894c2.379,6.03,4.482,11.551,5.383,13.746a2.17,2.17,0,0,0,1.039,1.109,3.685,3.685,0,0,0,1.455.392v.786Zm-1.641-11.782-2.1,5.406h4.251Z" fill="#fff"/>
    <path id="Path_51" data-name="Path 51" d="M861.7,347.619c-.511-.6-1.11-1.29-1.71-2.07-2.19,1.95-3.87,2.55-6,2.55-3.24,0-5.88-1.83-5.88-5.039,0-2.641,1.77-4.44,5.161-6.391-1.59-2.249-2.311-3.869-2.311-5.339,0-2.76,2.34-4.62,5.34-4.62,2.79,0,4.53,1.41,4.53,3.69,0,1.71-.78,3.39-3.12,5.01,1.71,2.489,2.76,3.9,4.439,5.969a10.34,10.34,0,0,0,1.92-4.529c0-.6-.929-.871-2.4-1.2v-.989h8.46v.989c-1.71.181-3,.3-3.78,1.141-.781.87-1.741,3.3-3.39,5.579a13.533,13.533,0,0,0,3.39,3.36,12.6,12.6,0,0,0,4.08.84v1.05Zm-7.77-10.019a4.592,4.592,0,0,0-1.77,3.809,4.229,4.229,0,0,0,4.38,4.17,4.136,4.136,0,0,0,2.7-.99C857.378,342.25,855.368,339.609,853.928,337.6Zm2.91-9.63c-1.14,0-1.74.87-1.74,2.07,0,.93.45,2.1,1.92,4.35a5.232,5.232,0,0,0,1.919-3.81C858.937,328.96,858.068,327.97,856.838,327.97Z" fill="#fff"/>
    <path id="Path_52" data-name="Path 52" d="M892.707,347.619h-10.47V346.6a13.682,13.682,0,0,0,2.37-.33,1.387,1.387,0,0,0,.93-1.47V330.13a1.374,1.374,0,0,0-.93-1.47,9.878,9.878,0,0,0-2.37-.51v-1.02h10.95c4.83,0,7.649,1.23,7.649,4.56,0,2.85-2.43,4.08-5.249,4.769v.27c3.029.331,6.329,1.86,6.329,5.34C901.916,346.239,898.467,347.619,892.707,347.619Zm-.87-19.259c-.33,0-.99.03-1.351.06v7.709h.66c3.031,0,4.411-1.589,4.411-4.109C895.557,329.41,894.057,328.36,891.837,328.36Zm-.061,9.059c-.33,0-1.049.031-1.29.06v7.62c.151.72,1.141,1.29,2.341,1.29,2.22,0,3.72-1.62,3.72-4.47C896.547,339.009,894.866,337.419,891.776,337.419Z" fill="#fff"/>
    <path id="Path_53" data-name="Path 53" d="M912.33,348.035c-4.6,0-8.548-3.165-8.548-8.132,0-5.221,3.835-8.478,8.641-8.478,4.62,0,8.617,3.1,8.617,8.2C921.04,344.27,917.828,348.035,912.33,348.035Zm.093-15.594c-2.749,0-4.275,2.7-4.275,7.347,0,4,1.248,7.231,4.275,7.231,3,0,4.25-3.165,4.25-7.324C916.673,336.045,915.634,332.441,912.423,332.441Z" fill="#fff"/>
    <path id="Path_54" data-name="Path 54" d="M937.533,333.042a4.749,4.749,0,0,0-1.64,1.617c-1.156,1.71-1.709,2.611-3.188,5.013a5.3,5.3,0,0,0-.994,3.3v2.31a1.171,1.171,0,0,0,.717,1.178,10.445,10.445,0,0,0,1.894.369v.786h-9.079v-.786a11.345,11.345,0,0,0,1.9-.253,1.126,1.126,0,0,0,.716-1.179v-2.887a4.078,4.078,0,0,0-.74-2.495c-1.248-2.2-2.1-3.673-3.188-5.429A4.454,4.454,0,0,0,922.378,333a3.882,3.882,0,0,0-1.5-.37v-.785h9.171v.785c-.809.046-2.333.046-2.333.555,0,.323.508,1.432,3.627,6.722,2.887-4.528,3.72-6.076,3.72-6.445,0-.693-1.11-.763-2.172-.832v-.785H938.9v.785A3.492,3.492,0,0,0,937.533,333.042Z" fill="#fff"/>
    <path id="Path_55" data-name="Path 55" d="M953.241,347.619H938.617v-.786a10.46,10.46,0,0,0,1.825-.253,1.068,1.068,0,0,0,.717-1.132v-11.3a1.057,1.057,0,0,0-.717-1.132,7.58,7.58,0,0,0-1.825-.393v-.785h8.8v.785a8.6,8.6,0,0,0-1.686.277,1.028,1.028,0,0,0-.716,1.132V344.57c0,1.894.392,2.1,2.726,2.1,1.109,0,2.426-.046,2.91-.554a13.261,13.261,0,0,0,2.079-3.489h.809Z" fill="#fff"/>
    <path id="Path_56" data-name="Path 56" d="M969.018,347.619H954v-.786a10.473,10.473,0,0,0,1.825-.253,1.069,1.069,0,0,0,.717-1.132v-11.3a1.058,1.058,0,0,0-.717-1.132,7.58,7.58,0,0,0-1.825-.393v-.785H968.07v4.019h-.854c-.347-1.039-1.617-2.841-2.68-2.98a15.344,15.344,0,0,0-1.918-.115H960.4v6.191h1.548a2.5,2.5,0,0,0,2.033-.693,4.719,4.719,0,0,0,.855-2.056h.854v6.584h-.854a5.2,5.2,0,0,0-.855-2.172,2.454,2.454,0,0,0-2.033-.693H960.4v4.644c0,1.894.371,2.1,2.7,2.1,1.108,0,2.772.023,3.327-.554a15.307,15.307,0,0,0,2.079-3.42h.808Z" fill="#fff"/>
    <path id="Path_57" data-name="Path 57" d="M986.234,347.619h-9.61V347.1a6.892,6.892,0,0,0,1.2-.167.7.7,0,0,0,.471-.744v-7.424a.7.7,0,0,0-.471-.744,4.961,4.961,0,0,0-1.2-.258v-.516h5.784v.516a5.63,5.63,0,0,0-1.108.182.676.676,0,0,0-.47.744v6.923c0,1.245.258,1.382,1.791,1.382.729,0,1.594-.031,1.913-.365a8.724,8.724,0,0,0,1.366-2.292h.532Z" fill="#fff"/>
    <path id="Path_58" data-name="Path 58" d="M996.348,347.619h-9.611V347.1a6.9,6.9,0,0,0,1.2-.167.7.7,0,0,0,.47-.744v-7.424a.7.7,0,0,0-.47-.744,4.968,4.968,0,0,0-1.2-.258v-.516h5.784v.516a5.642,5.642,0,0,0-1.108.182.676.676,0,0,0-.47.744v6.923c0,1.245.258,1.382,1.791,1.382.729,0,1.594-.031,1.913-.365a8.724,8.724,0,0,0,1.367-2.292h.531Z" fill="#fff"/>
    <path id="Path_59" data-name="Path 59" d="M1001.785,343.125h-.728v3.021a.733.733,0,0,0,.469.745,5.941,5.941,0,0,0,1.139.212v.516h-5.814V347.1a6.89,6.89,0,0,0,1.2-.167.7.7,0,0,0,.471-.744v-7.424a.7.7,0,0,0-.471-.744,4.96,4.96,0,0,0-1.2-.258v-.516h5.6c2.657,0,3.978.85,3.978,2.581C1006.431,342.138,1004.153,343.125,1001.785,343.125Zm-.152-5.268h-.576v4.63h.288a2.058,2.058,0,0,0,2.368-2.277C1003.713,338.677,1003.167,337.857,1001.633,337.857Z" fill="#fff"/>
  </g>
</svg>
