<svg xmlns="http://www.w3.org/2000/svg" width="48.716" height="48.716" viewBox="0 0 48.716 48.716">
  <g id="social-fb" transform="translate(-1413.664 -930.336)">
    <path id="Facebook" d="M1435.493,948.844v2.629h-1.926v3.215h1.926v9.554h3.957v-9.554h2.655s.248-1.541.369-3.227h-3.009v-2.2a.932.932,0,0,1,.857-.77h2.156v-3.348h-2.931C1435.4,945.145,1435.493,948.364,1435.493,948.844Z" fill="#fff"/>
    <path class="circle" data-name="Path 201" d="M1438.022,979.052a24.358,24.358,0,1,1,24.358-24.358A24.386,24.386,0,0,1,1438.022,979.052Zm0-46.716a22.358,22.358,0,1,0,22.358,22.358A22.384,22.384,0,0,0,1438.022,932.336Z" fill="#bf7b30"/>
  </g>
</svg>
