<svg xmlns="http://www.w3.org/2000/svg" width="48.716" height="48.716" viewBox="0 0 48.716 48.716">
  <g id="social-ig" transform="translate(-1359.843 -847.828)">
    <g id="Group_113" data-name="Group 113">
      <path id="Path_194" data-name="Path 194" d="M1384.2,864.262c2.581,0,2.886.01,3.9.056a5.351,5.351,0,0,1,1.8.333,3.2,3.2,0,0,1,1.835,1.835,5.353,5.353,0,0,1,.332,1.794c.047,1.02.057,1.325.057,3.906s-.01,2.887-.057,3.906a5.367,5.367,0,0,1-.332,1.8,3.2,3.2,0,0,1-1.835,1.834,5.351,5.351,0,0,1-1.8.333c-1.019.046-1.324.056-3.9.056s-2.887-.01-3.906-.056a5.363,5.363,0,0,1-1.8-.333,3.2,3.2,0,0,1-1.834-1.834,5.335,5.335,0,0,1-.333-1.8c-.047-1.019-.056-1.325-.056-3.906s.009-2.886.056-3.906a5.321,5.321,0,0,1,.333-1.794,3.2,3.2,0,0,1,1.834-1.835,5.363,5.363,0,0,1,1.8-.333c1.019-.046,1.325-.056,3.906-.056m0-1.742c-2.625,0-2.954.011-3.985.059a7.1,7.1,0,0,0-2.347.449,4.939,4.939,0,0,0-2.826,2.827,7.09,7.09,0,0,0-.45,2.346c-.047,1.031-.058,1.36-.058,3.985s.011,2.954.058,3.985a7.085,7.085,0,0,0,.45,2.346,4.939,4.939,0,0,0,2.826,2.827,7.1,7.1,0,0,0,2.347.45c1.031.047,1.36.058,3.985.058s2.954-.011,3.985-.058a7.09,7.09,0,0,0,2.346-.45,4.944,4.944,0,0,0,2.827-2.827,7.088,7.088,0,0,0,.449-2.346c.047-1.031.058-1.36.058-3.985s-.011-2.954-.058-3.985a7.093,7.093,0,0,0-.449-2.346,4.944,4.944,0,0,0-2.827-2.827,7.093,7.093,0,0,0-2.346-.449c-1.031-.048-1.36-.059-3.985-.059" fill="#fff"/>
      <path id="Path_195" data-name="Path 195" d="M1384.2,867.223a4.963,4.963,0,1,0,4.963,4.963,4.964,4.964,0,0,0-4.963-4.963m0,8.185a3.222,3.222,0,1,1,3.222-3.222,3.222,3.222,0,0,1-3.222,3.222" fill="#fff"/>
      <path id="Path_196" data-name="Path 196" d="M1390.52,867.027a1.16,1.16,0,1,1-1.16-1.16,1.159,1.159,0,0,1,1.16,1.16" fill="#fff"/>
    </g>
    <path class="circle" data-name="Path 197" d="M1384.2,896.544a24.358,24.358,0,1,1,24.359-24.358A24.385,24.385,0,0,1,1384.2,896.544Zm0-46.716a22.358,22.358,0,1,0,22.359,22.358A22.383,22.383,0,0,0,1384.2,849.828Z" fill="#bf7b30"/>
  </g>
</svg>
