<svg xmlns="http://www.w3.org/2000/svg" width="48.716" height="48.716" viewBox="0 0 48.716 48.716">
  <g id="social-twitter" transform="translate(-1580 -11972)">
    <path id="Path_200" data-name="Path 200" d="M1582.354,870.137a8.592,8.592,0,0,1-2.469.677,4.312,4.312,0,0,0,1.89-2.378,8.616,8.616,0,0,1-2.73,1.043,4.3,4.3,0,0,0-7.435,2.94,4.336,4.336,0,0,0,.111.98,12.2,12.2,0,0,1-8.859-4.491,4.3,4.3,0,0,0,1.33,5.738,4.276,4.276,0,0,1-1.947-.537v.054a4.3,4.3,0,0,0,3.448,4.214,4.306,4.306,0,0,1-1.941.074,4.3,4.3,0,0,0,4.015,2.985,8.683,8.683,0,0,1-6.364,1.78,12.224,12.224,0,0,0,18.818-10.3c0-.187,0-.372-.012-.556A8.729,8.729,0,0,0,1582.354,870.137Z" transform="translate(32.597 11119.879)" fill="#fff"/>
    <path class="circle" data-name="Path 197" d="M1384.2,896.544a24.358,24.358,0,1,1,24.359-24.358A24.385,24.385,0,0,1,1384.2,896.544Zm0-46.716a22.358,22.358,0,1,0,22.359,22.358A22.383,22.383,0,0,0,1384.2,849.828Z" transform="translate(220.157 11124.172)" fill="#bf7b30"/>
  </g>
</svg>
